<?xml version="1.0" encoding="UTF-8" standalone="no"?>
<!-- Created with Inkscape (http://www.inkscape.org/) -->

<svg
   width="184.58888mm"
   height="142.62045mm"
   viewBox="0 0 184.58888 142.62045"
   version="1.1"
   id="svg1"
   xml:space="preserve"
   xmlns="http://www.w3.org/2000/svg"
   xmlns:svg="http://www.w3.org/2000/svg"><defs
     id="defs1" /><g
     id="layer1"
     transform="translate(-6.3527431,-70.602903)"><path
       style="fill:#000000"
       d="m 103.11783,212.29239 c -0.0657,-0.51205 -0.0456,-1.00364 0.0448,-1.09242 0.0904,-0.0888 1.89561,-0.30722 4.01163,-0.48542 10.65151,-0.89704 20.40151,-3.39901 29.25282,-7.50666 1.27691,-0.59258 2.32166,-1.16516 2.32166,-1.2724 0,-0.10724 -2.83574,0.73206 -6.30163,1.86511 -6.0832,1.98868 -11.1143,3.26617 -16.11891,4.09288 -5.09965,0.84241 -12.91298,1.52196 -13.27994,1.15501 -0.6106,-0.6106 -1.44143,-72.34655 -0.92787,-80.11452 0.20279,-3.06724 0.21622,-3.11516 1.5994,-5.70463 2.58663,-4.84245 5.62061,-9.35827 7.93231,-11.80658 1.22238,-1.29461 5.78269,-5.53212 10.13401,-9.41668 4.35133,-3.884564 7.97749,-7.234804 8.05814,-7.444974 0.24176,-0.63002 -0.34548,-1.40501 -1.06464,-1.40501 -0.44858,0 -2.78385,1.59085 -7.20159,4.9059 -3.59575,2.698244 -6.58003,4.863604 -6.63173,4.811904 -0.0517,-0.0517 1.12617,-3.165619 2.61749,-6.919834 2.94528,-7.41441 2.99291,-7.706603 1.25616,-7.706603 -0.86174,0 -0.94847,0.09527 -2.05316,2.25532 -4.61481,9.023498 -7.95115,15.216607 -9.06284,16.822967 -1.48646,2.1479 -4.55797,5.59542 -5.37445,6.03238 l -0.54874,0.29368 0.18066,-12.70217 c 0.0994,-6.986204 0.2488,-13.418572 0.33207,-14.294167 0.14433,-1.517405 0.21559,-1.647609 1.52111,-2.779141 0.75332,-0.652932 1.76299,-1.592357 2.2437,-2.08761 l 0.87402,-0.900461 2.1773,0.729217 c 1.73451,0.580918 2.8248,0.754727 5.36127,0.854661 5.44167,0.214396 9.02511,-1.013676 14.10407,-4.833583 0.2544,-0.191338 0.72623,0.113559 1.76831,1.142693 l 1.42132,1.403663 -0.35684,1.375658 c -0.80629,3.108303 0.69339,6.383138 3.67317,8.021074 1.2065,0.663196 1.70273,0.776633 3.40249,0.777802 1.0945,7.54e-4 2.35269,-0.09594 2.79598,-0.214876 0.7581,-0.2034 0.87819,-0.124321 2.02168,1.331306 2.00609,2.55372 7.1605,9.970754 7.62131,10.966834 0.38681,0.83612 0.4231,3.13658 0.36412,23.08386 -0.036,12.18536 -0.15692,22.48686 -0.26865,22.89222 l -0.20314,0.73701 -3.37455,-2.94634 -3.37454,-2.94634 -0.78167,-2.56664 c -0.42992,-1.41166 -1.22756,-4.11884 -1.77253,-6.01596 -0.54497,-1.89712 -1.10564,-3.59856 -1.24592,-3.78098 -0.34665,-0.45074 -1.37936,-0.41891 -1.77236,0.0546 -0.25298,0.30481 -0.18294,1.27005 0.33211,4.57697 0.35899,2.30488 0.61743,4.23104 0.57432,4.28036 -0.0431,0.0493 -1.70942,-1.41333 -3.70292,-3.25032 -3.95716,-3.64648 -4.71962,-4.01354 -5.58707,-2.68964 -0.56027,0.85508 -0.37209,1.35225 1.28729,3.40091 0.76005,0.93836 4.13292,5.09712 7.49526,9.2417 6.17977,7.61747 9.30201,11.5207 11.08484,13.85755 l 0.97704,1.28065 -0.004,4.55664 c -0.004,4.13298 -0.16631,10.40411 -0.68064,26.24357 l -0.17865,5.50167 -2.02265,1.29649 c -11.87095,7.60906 -27.9905,12.91726 -41.8672,13.78695 l -2.96342,0.18572 z m 12.25888,-7.95066 c 1.85648,-0.94711 2.90636,-2.77121 2.62101,-4.55385 -0.0883,-0.55132 -0.17916,-0.47169 -0.71409,0.62546 -1.20978,2.48129 -3.27171,3.58242 -6.05669,3.23446 -1.13574,-0.1419 -1.42791,-0.10916 -1.27232,0.14258 0.66468,1.07548 3.77481,1.39173 5.42209,0.55135 z m 15.01405,-1.79153 c 5.22908,-1.66257 11.74343,-5.10932 15.35846,-8.1262 0.71274,-0.59481 1.18199,-1.11943 1.04279,-1.16583 -0.13921,-0.0464 -2.33425,1.00885 -4.87787,2.345 -2.54362,1.33616 -7.13025,3.6116 -10.19251,5.05654 -3.06227,1.44494 -5.68905,2.75507 -5.8373,2.9114 -0.386,0.40704 1.00992,0.0908 4.50643,-1.02091 z m -16.19688,-0.33712 c 3.51534,-1.70175 2.31959,-6.99271 -1.58035,-6.99271 -3.86185,0 -5.13124,5.41735 -1.64073,7.0021 1.40897,0.63969 1.88311,0.63831 3.22108,-0.009 z m -2.99342,-1.94639 c -1.22134,-1.30006 -0.27906,-3.36588 1.53527,-3.36588 0.93615,0 1.86779,1.00925 1.86779,2.02339 0,1.77066 -2.1894,2.63437 -3.40306,1.34249 z m 30.51713,-8.32927 c 1.84396,-0.95863 4.9924,-3.59755 4.67891,-3.92172 -0.27005,-0.27924 -3.55611,1.53406 -5.64158,3.11312 -3.02696,2.29192 -2.5925,2.65684 0.96267,0.8086 z m -11.97199,-3.42415 c 2.03362,-0.60338 3.63113,-1.46516 5.07257,-2.73644 1.15954,-1.02265 2.52428,-2.84131 2.30026,-3.06534 -0.0544,-0.0543 -0.81422,0.49567 -1.68859,1.22228 -2.9191,2.42577 -6.30895,3.68511 -9.89445,3.67582 -1.53515,-0.004 -2.59139,-0.17413 -6.129,-0.98736 -0.92814,-0.21336 -0.48243,0.35349 0.78728,1.00124 2.56564,1.3089 6.80757,1.70405 9.55193,0.8898 z m -0.77578,-3.27754 c 7.25653,-2.24264 10.74796,-10.30143 7.37324,-17.01865 -2.2324,-4.4435 -7.28977,-7.28115 -12.02481,-6.74703 -4.44078,0.50093 -8.05375,3.04112 -9.92256,6.97629 -0.84432,1.7779 -0.98005,2.34234 -1.0727,4.46069 -0.16498,3.77209 0.71798,6.3043 3.1114,8.92308 1.4,1.53183 3.77785,2.97453 5.84035,3.54349 1.87883,0.51829 4.76419,0.45887 6.69508,-0.13787 z m -6.13229,-2.27474 c -2.82684,-0.79256 -5.16296,-2.81852 -6.43795,-5.5832 -0.4849,-1.05146 -0.60207,-1.77134 -0.60207,-3.69918 0,-2.16436 0.0826,-2.56146 0.86231,-4.14517 1.02232,-2.07651 2.68771,-3.70695 4.79585,-4.69521 1.30279,-0.61072 1.84924,-0.70589 4.0532,-0.70589 2.38833,0 2.66087,0.058 4.36443,0.92866 2.16202,1.10499 3.7542,2.89958 4.62719,5.21545 0.82933,2.20006 0.67986,5.47978 -0.34522,7.57497 -0.884,1.80682 -2.90545,3.74375 -4.82358,4.62191 -1.84916,0.84657 -4.50318,1.04587 -6.49416,0.48766 z m 6.6061,-2.36853 c 1.02987,-0.53257 2.54405,-2.04423 3.07383,-3.06871 0.53462,-1.03383 0.88437,-2.93245 0.65871,-3.57576 -0.14017,-0.39959 -0.26633,-0.24536 -0.59973,0.73311 -0.88525,2.59807 -2.79924,4.61993 -5.37689,5.67993 -0.65163,0.26796 -1.18523,0.59339 -1.18577,0.72317 -10e-4,0.34879 2.49718,-0.009 3.42985,-0.49174 z m -9.87699,-9.74722 c 0.87198,-1.60211 2.59998,-3.18056 4.20397,-3.84015 1.45141,-0.59684 1.52897,-0.99933 0.15712,-0.81532 -3.41243,0.4577 -6.14285,3.57416 -6.19239,7.06788 -0.0327,2.30829 0.35949,2.61375 0.76752,0.59776 0.18709,-0.92435 0.66579,-2.27893 1.06378,-3.01017 z m -5.05101,12.28538 c -2.55825,-3.56089 -3.505,-6.69429 -3.25507,-10.773 0.0894,-1.45932 0.23305,-3.07121 0.31917,-3.58197 0.14485,-0.85906 0.12819,-0.88889 -0.22226,-0.398 -1.26789,1.77599 -1.86879,5.8503 -1.28039,8.68151 0.37036,1.78203 1.57152,4.25573 2.61291,5.38107 1.04802,1.1325 2.48743,2.30053 2.64315,2.14481 0.0728,-0.0728 -0.29511,-0.72727 -0.81751,-1.45442 z m 25.80804,-6.10957 c 0.47939,-1.47209 0.63761,-4.76192 0.31361,-6.52075 -0.41609,-2.25871 -1.94177,-5.2019 -3.50893,-6.76905 -1.19193,-1.19193 -2.80291,-2.29538 -3.02577,-2.07251 -0.0474,0.0474 0.38856,0.62334 0.96879,1.27989 1.58481,1.79322 2.83683,3.80373 3.60247,5.78488 0.58718,1.51938 0.69039,2.21884 0.71243,4.82811 0.0142,1.67822 -0.0682,3.64831 -0.18312,4.37797 l -0.20888,1.32666 0.51021,-0.64321 c 0.28062,-0.35376 0.64925,-1.07016 0.81919,-1.59199 z m -24.74036,-13.45294 c 3.29099,-2.79184 7.60668,-4.28325 11.4908,-3.97098 1.09449,0.088 2.52728,0.21972 3.18398,0.29272 l 1.19399,0.13272 -1.38759,-0.67986 c -4.42794,-2.16952 -10.63677,-1.03456 -14.20869,2.59733 -1.2767,1.29813 -2.5546,3.12096 -2.18795,3.12096 0.0856,0 0.94756,-0.6718 1.91546,-1.49289 z m 1.38559,-11.89467 c 1.72877,-0.89398 2.01936,-3.49506 0.55417,-4.96025 -2.30973,-2.30973 -5.91315,0.78761 -4.37554,3.76102 0.7326,1.41669 2.39312,1.9378 3.82137,1.19923 z m -2.21376,-1.62263 c -0.49343,-0.49343 -0.54936,-1.7325 -0.0986,-2.1833 0.17512,-0.17512 0.62884,-0.3184 1.00827,-0.3184 0.85792,0 1.32665,0.44677 1.32665,1.2645 0,1.48935 -1.27748,2.19607 -2.23636,1.2372 z m 25.35693,-31.18367 c 0.96136,-0.68454 1.67296,-2.58006 1.43826,-3.83112 -0.0992,-0.52882 -0.56862,-1.38514 -1.04313,-1.90292 -0.71662,-0.78197 -1.08466,-0.96061 -2.17295,-1.0547 -0.98215,-0.0849 -1.51482,0.0154 -2.12743,0.40082 -1.67055,1.05092 -2.21524,3.71212 -1.10114,5.37983 1.20386,1.80206 3.29892,2.22392 5.00639,1.00809 z m -2.82269,-1.07624 c -0.84189,-0.46048 -1.19399,-1.05372 -1.19399,-2.01171 0,-1.08996 1.00072,-2.19254 1.98999,-2.19254 0.37809,0 0.98052,0.29307 1.33872,0.65127 0.91289,0.91289 0.86527,2.09419 -0.12432,3.08378 -0.83707,0.83708 -1.18805,0.91899 -2.0104,0.4692 z m 1.59199,-25.155634 c 0.61354,-0.25228 0.48201,-0.31932 -1.55817,-0.79423 -2.96339,-0.689807 -5.561,-2.71799 -6.72868,-5.253668 -0.70481,-1.530543 -1.22789,-4.500446 -0.97213,-5.519486 0.24127,-0.961289 -0.13032,-0.784255 -0.57183,0.272435 -0.56515,1.352595 -0.4834,3.836825 0.18506,5.623447 0.59948,1.60225 2.31685,3.678481 3.80179,4.596232 1.63563,1.01087 4.65119,1.56573 5.84396,1.07527 z M 83.161715,212.13587 c -12.363583,-2.14515 -23.317229,-6.31345 -34.024035,-12.94754 -4.068464,-2.52087 -4.051074,-2.49956 -4.051074,-4.96388 v -2.09852 l 1.65833,1.2223 c 1.75977,1.29706 5.20256,3.1481 5.430774,2.91988 0.190473,-0.19047 -0.934961,-1.16651 -4.196004,-3.63902 l -2.81153,-2.1317 -0.16998,-4.42658 c -0.29006,-7.5536 -0.75293,-48.23938 -0.66163,-58.15625 l 0.0867,-9.41928 2.89246,-5.4393 c 1.590856,-2.99161 5.451084,-10.27497 8.578286,-16.185234 3.127202,-5.910266 6.355875,-11.887979 7.17483,-13.283809 l 1.489009,-2.537873 1.733274,1.837362 c 3.75423,3.979681 8.53091,6.416778 14.428971,7.361765 2.02716,0.324792 7.775091,0.235371 8.708443,-0.135478 0.378885,-0.150543 0.44881,0.261376 0.5929,3.492683 0.557196,12.495494 0.460459,61.373004 -0.121468,61.373004 -0.396826,0 -7.496792,-6.75272 -7.992648,-7.60174 -0.259652,-0.44459 -1.549158,-5.08972 -2.86557,-10.32251 -1.316412,-5.2328 -2.539848,-9.60716 -2.718745,-9.72082 -0.487073,-0.30943 -1.371386,-0.25651 -1.731527,0.10363 -0.463975,0.46398 -0.404013,1.42136 0.455786,7.27733 0.425802,2.90008 0.858213,6.16836 0.960914,7.26285 l 0.18673,1.98999 -0.894581,-0.82327 c -9.20356,-8.46992 -9.037935,-8.33068 -9.908583,-8.33068 -1.496339,0 -2.293373,1.47119 -1.531766,2.82738 0.457075,0.81391 17.143938,20.68687 23.234543,27.67082 l 3.136832,3.59693 -0.156385,6.50063 c -0.08601,3.57534 -0.274013,11.93329 -0.417781,18.57322 -0.299381,13.82693 -0.369577,14.86038 -1.008953,14.85443 -0.928057,-0.009 -7.718874,-1.0545 -10.262512,-1.58052 -5.715521,-1.18197 -13.547302,-3.70139 -19.483837,-6.2678 -3.147381,-1.36064 -4.163372,-1.6192 -3.049991,-0.7762 1.200503,0.90896 9.268804,4.70956 12.318556,5.80268 5.600712,2.00748 11.548524,3.4678 16.848565,4.13672 4.442879,0.56073 4.112642,0.43066 4.112642,1.61994 v 1.0493 l -1.12766,-0.0202 c -0.620213,-0.0111 -2.79925,-0.3102 -4.842304,-0.66467 z m 0.716771,-8.79969 c 0.887482,-0.83286 1.143482,-1.9039 0.744226,-3.11366 -0.671218,-2.03381 -3.062043,-2.69015 -4.513209,-1.23898 -2.776456,2.77645 0.910887,7.03481 3.768983,4.35264 z m -2.798302,-1.0833 c -0.877346,-0.96945 -0.343396,-2.43342 0.887538,-2.43342 1.255373,0 1.801854,1.61036 0.841436,2.47952 -0.630662,0.57075 -1.184092,0.55599 -1.728974,-0.0461 z M 69.091838,200.8004 c -0.287852,-0.19014 -1.657661,-0.86104 -3.04402,-1.49089 -1.386358,-0.62984 -4.998272,-2.33488 -8.026475,-3.78897 -3.028203,-1.45409 -5.653278,-2.59465 -5.833501,-2.53458 -0.393531,0.13118 2.390649,2.21978 4.957175,3.71871 3.517425,2.05429 9.673726,4.35857 11.814155,4.422 0.628863,0.0186 0.634358,0.005 0.132666,-0.32627 z m 3.192604,-3.10575 c 0.307575,-0.49766 -4.367238,-2.1205 -6.108413,-2.1205 -0.58798,0 -0.66638,0.0693 -0.417677,0.36892 0.907778,1.0938 6.075419,2.48079 6.52609,1.75158 z M 59.016527,185.49154 c -0.09019,-0.14593 -0.306186,-0.26542 -0.479989,-0.26554 -0.774361,-5.1e-4 -3.601028,-1.61368 -4.61934,-2.63623 -2.685732,-2.69693 -3.475356,-6.91728 -2.019731,-10.79498 0.339221,-0.90367 -0.682428,0.13908 -1.313949,1.34108 -0.453744,0.86363 -0.569068,1.55586 -0.577604,3.46706 -0.0093,2.07509 0.08694,2.59659 0.73422,3.97998 1.367599,2.92287 4.483256,5.12612 7.297058,5.16014 0.697686,0.008 1.079403,-0.0896 0.979335,-0.25151 z m 6.584404,-1.09316 c 1.155505,-0.59249 2.301466,-1.94563 2.723288,-3.21561 0.516602,-1.55534 0.28281,-1.96185 -0.497311,-0.86471 -0.311105,0.43753 -1.335856,1.60146 -2.277225,2.5865 -1.450384,1.51767 -1.621293,1.79099 -1.119943,1.79099 0.325401,0 0.852437,-0.13373 1.171191,-0.29717 z m -2.737093,-1.31566 c 2.704787,-1.22293 4.333959,-3.74678 4.354049,-6.74512 0.02892,-4.31614 -3.067107,-7.41587 -7.405364,-7.41423 -2.828825,0.001 -5.140558,1.41009 -6.403937,3.90324 -2.526577,4.98596 0.99838,10.80958 6.536602,10.79919 1.160538,-0.002 2.115201,-0.17981 2.91865,-0.54308 z m -4.541134,-1.67188 c -2.383276,-0.85169 -3.68415,-2.67636 -3.68415,-5.16758 0,-5.56177 7.396159,-7.37525 9.995902,-2.45091 1.153283,2.1845 0.610803,4.88083 -1.323716,6.57936 -1.498707,1.31588 -3.213794,1.67318 -4.988036,1.03913 z m 5.221253,-6.2009 c -0.43062,-1.812 -2.063171,-3.13628 -3.784234,-3.06967 -1.814409,0.0702 -1.975565,0.50624 -0.31846,0.86163 1.544742,0.33129 3.033857,1.31527 3.483312,2.30172 0.39692,0.87114 0.832997,0.80519 0.619382,-0.0937 z m 5.907749,-1.04542 c -0.362953,-5.01778 -5.586389,-8.83855 -10.647046,-7.78796 -0.822917,0.17084 -1.760474,0.5246 -2.08346,0.78614 -0.571859,0.46306 -0.518188,0.47233 2.048032,0.35386 3.235186,-0.14936 4.968529,0.39975 6.985128,2.21285 1.431915,1.28741 2.848203,3.77565 3.121348,5.48381 0.253509,1.58535 0.706829,0.76001 0.575998,-1.0487 z M 61.48335,153.39941 c 0.908322,-0.90832 1.153488,-1.84191 0.810193,-3.08522 -0.728196,-2.63731 -4.395469,-2.61987 -5.268373,0.0251 -0.935185,2.83364 2.397265,5.12109 4.45818,3.06017 z m -2.540451,-0.95671 c -0.736249,-0.51569 -0.763142,-1.53617 -0.05904,-2.24028 0.638788,-0.63878 0.774062,-0.64916 1.532952,-0.11762 0.377794,0.26462 0.589701,0.68827 0.589701,1.17895 0,0.66769 -0.770254,1.59199 -1.326658,1.59199 -0.08099,0 -0.412622,-0.18587 -0.736958,-0.41304 z m -4.391543,-22.4482 c 2.14809,-2.01803 0.704479,-5.79458 -2.215013,-5.79458 -1.011121,0 -1.342268,0.1421 -2.102296,0.90212 -0.808173,0.80818 -0.902128,1.05476 -0.902128,2.36763 0,1.18864 0.129472,1.61937 0.685329,2.27997 1.1921,1.41673 3.172847,1.5237 4.534108,0.24486 z m -3.271158,-1.16887 c -0.549244,-0.54924 -0.649375,-0.84427 -0.517804,-1.52565 0.170014,-0.88048 1.006996,-1.77341 1.662295,-1.77341 0.624671,0 1.683201,1.25147 1.683201,1.98999 0,0.76087 -1.065234,1.98999 -1.724656,1.98999 -0.232165,0 -0.728532,-0.30641 -1.103036,-0.68092 z M 70.46721,117.91201 c 0.317176,-0.12171 -0.334054,-0.34605 -1.898236,-0.65392 -4.18651,-0.82401 -7.178777,-2.66729 -9.668206,-5.95575 -0.699249,-0.92369 -1.338202,-1.61259 -1.419896,-1.53089 -0.246349,0.24635 0.533236,2.15306 1.388652,3.39636 1.482161,2.15425 4.626381,4.30697 6.913858,4.73365 1.0874,0.20283 4.164697,0.20976 4.683828,0.0105 z m 6.667994,-1.95101 c 3.045009,-1.52161 5.357041,-4.75483 5.947293,-8.31689 0.247148,-1.49149 0.128659,-3.34929 -0.193094,-3.02754 -0.0626,0.0626 -0.421076,1.18113 -0.796612,2.48563 -0.375536,1.30449 -1.064751,3.00733 -1.53159,3.78409 -0.808366,1.34501 -3.39739,4.02276 -5.097897,5.2726 -1.184125,0.87031 -0.242787,0.75889 1.6719,-0.19789 z m -4.13606,-1.06545 c 3.026073,-1.01941 5.245099,-3.03089 6.676588,-6.05214 0.765363,-1.61534 0.831552,-1.97185 0.818882,-4.41071 -0.01069,-2.0584 -0.139513,-2.96743 -0.574532,-4.05427 -2.484486,-6.207184 -9.916601,-8.804674 -15.630401,-5.462764 -1.410301,0.82487 -3.593525,3.13638 -4.334935,4.589665 -1.952421,3.827059 -1.362901,8.866109 1.417231,12.114069 2.789972,3.25945 7.629168,4.62298 11.627167,3.27615 z m -5.226669,-2.07075 c -2.680221,-0.70111 -5.02849,-2.76004 -5.957915,-5.2238 -0.481075,-1.27526 -0.572643,-1.95636 -0.479453,-3.5663 0.14063,-2.42949 0.948993,-4.173999 2.668634,-5.759114 1.510951,-1.39274 2.326817,-1.80782 4.326774,-2.20129 2.786023,-0.54812 5.652046,0.45813 7.671498,2.69342 1.577239,1.745814 2.115772,3.196584 2.102869,5.664984 -0.0094,1.79342 -0.129697,2.36096 -0.775757,3.65905 -0.89571,1.79971 -2.597268,3.46449 -4.319831,4.22646 -1.325005,0.58611 -3.958829,0.8409 -5.236819,0.50659 z m 1.81269,-1.63996 c 0.17048,-0.008 -0.342612,-0.26435 -1.140204,-0.57054 -2.041499,-0.78372 -4.075387,-2.86182 -4.630532,-4.7312 -0.23096,-0.77772 -0.419928,-1.63118 -0.419928,-1.89655 0,-0.82696 -0.498085,-0.52799 -0.67291,0.4039 -0.373664,1.99181 1.036582,4.785 2.995487,5.93299 1.247217,0.73092 2.625256,1.15241 3.204757,0.98022 0.194351,-0.0577 0.492849,-0.11122 0.66333,-0.11882 z m 6.185305,-10.1929 c -1.042949,-2.278104 -3.496615,-3.754194 -5.875342,-3.534534 -1.120357,0.10347 -1.08128,0.13687 1.061327,0.90736 1.774932,0.638265 3.86531,2.721704 4.493687,4.478774 0.769293,2.15111 0.794596,2.17534 0.88698,0.84965 0.06466,-0.92783 -0.08807,-1.65589 -0.566652,-2.70125 z m -17.933282,-0.70906 c 1.632061,-4.140574 4.741476,-6.950594 9.400414,-8.495274 2.563096,-0.849809 2.174854,-1.279016 -0.693295,-0.766449 -3.933734,0.702999 -7.529388,3.437949 -9.260222,7.043579 -0.764465,1.592525 -0.907593,2.206164 -1.003877,4.304014 -0.152196,3.31609 0.18561,4.00359 0.656134,1.33536 0.199335,-1.13039 0.604716,-2.66994 0.900846,-3.42123 z m 24.286911,-1.738354 c -1.325033,-3.88876 -4.88833,-6.89438 -8.501896,-7.17129 l -1.339089,-0.10261 2.122654,1.12863 c 2.675478,1.42258 5.729945,4.39997 7.037061,6.859475 0.741041,1.394369 0.933763,1.607699 1.006322,1.113909 0.04936,-0.33591 -0.09691,-1.158559 -0.325052,-1.828114 z m 80.683921,88.963254 c -0.0987,-0.2572 -0.17946,-1.16301 -0.17946,-2.01291 v -1.54525 l 3.39585,-3.40801 c 6.5461,-6.56955 12.62143,-15.73777 15.99825,-24.14282 1.79619,-4.47079 3.44517,-9.98051 4.06207,-13.57251 0.19664,-1.14495 -0.24096,-0.86596 -0.65074,0.41488 -0.17443,0.54522 -1.02474,2.87401 -1.88958,5.17509 -4.6111,12.26875 -10.05021,21.62365 -18.37522,31.60414 l -2.40796,2.88679 -0.16822,-1.95813 c -0.51048,-5.94225 -0.98768,-57.13634 -0.54713,-58.69647 0.15821,-0.56028 2.40107,-5.09745 4.98413,-10.08261 4.29185,-8.28303 5.41667,-10.40613 8.85852,-16.720414 l 1.13625,-2.08452 0.89825,1.68121 c 1.05953,1.98305 2.7761,3.80499 4.60796,4.890795 0.72472,0.429559 1.3721,0.960119 1.43862,1.179019 0.20293,0.66771 1.17847,6.84057 1.61439,10.21527 0.87472,6.77167 1.12852,19.28219 0.47772,23.54819 -0.0908,0.59556 -0.0437,0.99499 0.11734,0.99499 0.44557,0 1.36294,-5.56184 1.6895,-10.24312 0.50731,-7.27245 -0.47855,-16.06791 -2.52242,-22.5041 -0.5624,-1.77102 -0.58874,-2.01411 -0.20569,-1.89837 0.24162,0.073 0.96413,0.2478 1.60557,0.38841 0.64145,0.14061 1.25333,0.39654 1.35975,0.56872 0.35176,0.56916 1.84144,8.29107 2.24677,11.64633 1.47488,12.20895 0.16225,25.2851 -3.73537,37.21086 -4.12186,12.6119 -10.94229,23.83998 -20.42617,33.62646 -2.58574,2.66824 -3.23814,3.21555 -3.38298,2.83808 z m 8.15712,-20.14789 c 0.81431,-1.22383 1.94507,-3.22679 2.5128,-4.45101 2.39317,-5.16049 1.72946,-4.5626 -3.38033,3.0451 -5.55537,8.2711 -6.02392,9.27848 -2.70392,5.81335 1.14999,-1.20026 2.75714,-3.1836 3.57145,-4.40744 z m 4.06853,-13.40963 c 2.67576,-1.36565 3.78663,-4.96552 2.38714,-7.73578 -0.51806,-1.02549 -2.21703,-2.57308 -2.50673,-2.28339 -0.0554,0.0554 0.27172,0.69965 0.72683,1.43177 1.50843,2.42657 1.39599,4.71914 -0.32293,6.58394 -0.79833,0.86608 -1.45964,1.28306 -2.5705,1.62078 -1.80885,0.54992 -1.84708,0.57547 -1.35529,0.906 0.53824,0.36174 2.44395,0.0879 3.64148,-0.52332 z m -1.81027,-1.74832 c 1.98672,-1.02737 2.76808,-3.09537 1.90594,-5.04438 -1.53451,-3.46902 -6.35452,-2.80685 -7.06312,0.97034 -0.5295,2.82245 2.67783,5.35616 5.15718,4.07404 z m -2.90022,-1.99952 c -0.5223,-0.5223 -0.68913,-1.66629 -0.36584,-2.50876 0.24857,-0.64776 1.58698,-1.24247 2.35973,-1.04853 1.46119,0.36674 1.96229,2.45795 0.84133,3.51104 -0.78157,0.73425 -2.1253,0.75617 -2.83522,0.0463 z m 12.17351,-8.95494 c 0.30999,-0.83911 0.68274,-2.1688 0.82835,-2.95487 0.32814,-1.77156 0.34855,-5.41987 0.0292,-5.22251 -0.5292,0.32707 -1.88713,6.84562 -1.88713,9.05891 0,1.09253 0.43924,0.71644 1.02957,-0.88153 z m -9.12219,-12.79243 0.53066,-0.2182 -0.53066,-0.19691 c -1.94188,-0.72056 -3.04424,-1.33526 -3.91365,-2.18231 l -0.99499,-0.96942 v 0.70795 c 0,1.85782 3.03887,3.62772 4.90864,2.85889 z m 2.28241,-2.46943 c 1.84331,-1.23141 2.35167,-3.91552 1.07986,-5.7016 -1.22364,-1.71845 -3.99883,-2.04879 -5.63633,-0.67093 -2.12258,1.78603 -2.10989,4.47964 0.0296,6.27988 1.11097,0.93482 3.20218,0.97762 4.5269,0.0926 z m -3.62113,-1.64098 c -1.37281,-1.3728 -0.4248,-3.85937 1.47138,-3.85937 1.12389,0 2.12528,1.03109 2.11422,2.17693 -0.0194,2.00845 -2.22478,3.04327 -3.5856,1.68244 z m 7.59001,-0.7348 c 0.75389,-2.79973 -1.09167,-6.18982 -3.86867,-7.10631 -1.60724,-0.53044 -3.92688,-0.22667 -5.20886,0.68213 -0.99364,0.70439 -2.2392,2.43526 -1.95615,2.71831 0.0625,0.0625 0.61439,-0.31485 1.22633,-0.83865 1.38957,-1.18942 2.58901,-1.5954 4.2438,-1.43639 1.7405,0.16724 3.20599,1.17527 3.95349,2.71939 0.48517,1.00224 0.56808,1.52356 0.4564,2.86982 -0.0751,0.90481 -0.21752,1.9436 -0.31658,2.30843 l -0.18011,0.66333 0.67542,-0.73389 c 0.37149,-0.40364 0.8102,-1.23442 0.97493,-1.84617 z m 2.64193,-13.39824 c -0.15817,-1.19958 -0.5099,-3.05026 -0.78162,-4.11264 -0.8075,-3.15726 -2.41068,-6.952649 -2.76906,-6.555519 -0.12559,0.13916 3.22531,16.937359 3.48941,17.492519 0.31978,0.67223 0.36632,-4.51093 0.0613,-6.82436 z m -4.6534,-4.40271 c -0.2083,-1.56362 -1.11969,-3.89684 -1.52217,-3.89684 -0.46441,0 -0.0554,3.49148 0.57557,4.91291 0.50749,1.14332 0.62374,1.25724 0.85845,0.84125 0.15967,-0.28298 0.19597,-1.04791 0.0882,-1.85732 z M 30.346276,183.86286 C 21.577115,174.82567 14.012755,162.02877 10.370865,150.06976 6.0307854,135.81807 5.2382754,122.38095 7.8396354,107.15235 c 0.0935,-0.54724 0.25919,-0.99499 0.36825,-0.99499 0.16761,0 3.4960296,4.2766 4.0606196,5.21738 0.10191,0.16982 -0.0153,1.12501 -0.26046,2.12266 -0.48434,1.97094 -0.66467,8.55731 -0.26033,9.50852 l 0.22558,0.53067 0.20551,-0.53067 c 0.11303,-0.29186 0.41748,-2.56045 0.67657,-5.0413 0.25908,-2.48085 0.55266,-4.60419 0.6524,-4.71853 0.37783,-0.43314 17.738891,24.96289 19.640921,28.73105 l 0.87054,1.72466 -0.20835,16.58323 c -0.1146,9.12078 -0.24153,16.94143 -0.28206,17.37923 -0.0405,0.4378 -0.0889,1.69149 -0.10744,2.78598 l -0.0337,1.98999 -1.4582,-1.59199 c -1.80083,-1.96606 -7.10307,-8.85441 -10.569241,-13.73092 -1.42625,-2.00657 -2.69437,-3.64831 -2.81804,-3.64831 -0.2677,0 0.71889,2.2904 1.91058,4.43548 3.07556,5.5361 7.087331,10.42706 11.998311,14.62775 l 1.02903,0.8802 -0.23303,1.59985 -0.23304,1.59985 z m -1.18206,-11.4389 c -0.008,-1.02142 -2.91329,-4.80095 -3.3529,-4.36134 -0.3037,0.3037 0.78332,2.38547 1.86168,3.56534 1.05143,1.15042 1.49566,1.38754 1.49122,0.796 z m -4.07935,-10.52389 c 1.69195,-0.76834 3.36933,-3.50731 2.89882,-4.73343 -0.13126,-0.34206 -0.32236,-0.17306 -0.83747,0.7406 -0.83587,1.48261 -2.598211,3.30959 -3.587961,3.71956 -0.78366,0.3246 -0.79209,0.78516 -0.0142,0.77506 0.24677,-0.003 0.94013,-0.22901 1.540801,-0.50179 z m -1.288781,-1.92574 c 0.47557,-0.29231 1.191971,-1.08823 1.591991,-1.76871 0.63056,-1.07265 0.72679,-1.51961 0.72335,-3.35989 -0.005,-2.48498 -0.55105,-3.93325 -2.155131,-5.71225 -4.63174,-5.13683 -10.84109,-0.0215 -8.2807,6.82173 0.72234,1.93064 2.82178,4.12169 4.34631,4.53599 1.31254,0.35668 2.65124,0.17335 3.77418,-0.51687 z m -3.51799,-1.53142 c -0.78834,-0.32161 -1.96933,-1.5917 -2.60144,-2.79771 -0.78743,-1.50233 -0.80211,-4.30899 -0.028,-5.35604 1.24979,-1.6905 2.97278,-1.69258 4.65972,-0.006 1.19794,1.19793 1.80439,2.70771 1.81122,4.50904 0.0112,2.94606 -1.6646,4.53843 -3.84149,3.65034 z m 0.92866,-1.21559 c 0,-0.0765 -0.4147,-0.74193 -0.92156,-1.47878 -0.83649,-1.21604 -1.4611,-2.76055 -1.46495,-3.62246 -8.1e-4,-0.18242 -0.12088,-0.33167 -0.26681,-0.33167 -0.50217,0 -0.3973,2.42395 0.15073,3.48405 0.54685,1.0578 2.50259,2.58081 2.50259,1.94886 z m 6.837751,-4.97374 c -0.17441,-2.17276 -1.12547,-4.02525 -2.87332,-5.59672 -1.581321,-1.42174 -3.646651,-2.17156 -5.239961,-1.90237 -1.60405,0.271 -1.89678,0.60505 -0.6961,0.79435 1.97117,0.31078 2.98771,0.68236 4.25391,1.55494 1.355391,0.93405 2.983081,3.06801 3.548151,4.65176 0.68649,1.92409 0.79253,2.16153 0.96529,2.16153 0.0966,0 0.11547,-0.74857 0.042,-1.66349 z m -15.436471,-4.47599 c -2.23446,-10.39023 -2.6778796,-14.71853 -2.6778796,-26.13932 0,-5.13019 -0.077,-9.28001 -0.17115,-9.22183 -0.25752,0.15916 -0.96826,4.35875 -1.31829,7.78948 -0.57139,5.60038 -0.0418,14.47149 1.22045,20.44456 0.8549196,4.04545 3.4139696,11.93471 3.7592696,11.58941 0.0666,-0.0666 -0.29894,-2.07468 -0.8124,-4.4623 z m 2.61892,-11.10716 c -0.45938,-4.13911 -1.16772,-8.77193 -1.39919,-9.15119 -0.52887,-0.86656 -0.75486,4.47298 -0.30631,7.23709 0.38125,2.34934 1.57375,6.0092 1.86356,5.71939 0.14027,-0.14027 0.0754,-1.70159 -0.15806,-3.80529 z m 3.78383,-5.10756 c -0.16573,-2.44937 -0.80076,-4.63058 -1.12029,-3.84799 -0.26562,0.65055 -0.019,4.42843 0.34641,5.30732 0.16687,0.40131 0.44258,0.72966 0.6127,0.72966 0.22248,0 0.26772,-0.6144 0.16118,-2.18899 z m 12.486591,-1.98999 c -3.61163,-4.17996 -10.043891,-12.08337 -10.419231,-12.80225 -0.19048,-0.36483 -0.97341,-3.87778 -1.73984,-7.80654 l -1.3935,-7.14322 0.63598,-0.49574 c 2.05578,-1.602479 3.18745,-2.721064 4.01904,-3.972534 0.87698,-1.3198 1.04819,-1.43942 2.662131,-1.86003 3.33845,-0.87004 5.73813,-2.45269 7.71217,-5.086357 0.56178,-0.749513 1.06923,-1.4125 1.12766,-1.473305 0.0584,-0.06081 0.10622,9.640382 0.10622,21.558206 0,12.58949 -0.0996,21.66876 -0.23769,21.66876 -0.13074,0 -1.24356,-1.16415 -2.47294,-2.58699 z m -3.85871,-20.49839 c 1.02847,-1.02847 1.05894,-1.10984 0.94229,-2.51654 -0.13557,-1.63478 -0.64976,-2.38955 -2.02399,-2.97093 -1.143,-0.48356 -2.413641,-0.0982 -3.351541,1.01642 -1.23684,1.46989 -0.64845,4.603 0.98799,5.26091 1.356651,0.54543 2.334031,0.32136 3.445251,-0.78986 z m -2.87654,-0.73221 c -1.053691,-0.70356 -1.014921,-2.45554 0.0701,-3.16646 0.80926,-0.53025 1.83658,-0.13819 2.20974,0.84331 0.57179,1.50391 -1.04276,3.14915 -2.27981,2.32315 z m -11.382661,-0.61309 c -1.60525,-2.04349 -2.95845,-3.83012 -3.00709,-3.97029 -0.0486,-0.14017 0.49248,-0.25486 1.2025,-0.25486 0.71002,0 1.91194,-0.16108 2.67092,-0.35796 l 1.37997,-0.35796 0.12646,0.82229 c 0.0695,0.45226 0.25792,2.07598 0.4186,3.60828 0.16067,1.53229 0.35408,3.11433 0.42979,3.51564 0.0757,0.40132 0.0386,0.7253 -0.0824,0.71998 -0.12104,-0.005 -1.53347,-1.68164 -3.13873,-3.72512 z m 148.397245,-6.09195 c -0.0307,-3.424204 -0.0606,-9.136204 -0.0663,-12.693335 l -0.0105,-6.467514 1.9082,-0.118871 1.9082,-0.118871 0.30768,1.142642 c 0.81123,3.012676 2.94639,5.656561 5.6275,6.968305 0.94398,0.461848 1.45138,0.85777 1.33964,1.04531 -0.90639,1.52108 -10.28969,15.782834 -10.57937,16.079634 -0.32899,0.3371 -0.38658,-0.43555 -0.43504,-5.8373 z M 44.290616,93.393046 c 0,-10.030959 0.0267,-10.630671 0.46433,-10.450206 2.70028,1.113377 3.49501,1.283829 6.036298,1.294658 1.719309,0.0073 3.251002,-0.150493 4.351214,-0.448331 0.933843,-0.2528 1.727625,-0.427695 1.76396,-0.388656 0.207759,0.223227 -12.060422,20.634189 -12.402352,20.634189 -0.1174,0 -0.21345,-4.788739 -0.21345,-10.641654 z M 149.43742,91.025629 c -1.96408,-2.185246 -2.34335,-2.893518 -4.32825,-8.082684 -0.83775,-2.19015 -1.77403,-4.608938 -2.08063,-5.375083 -0.3066,-0.766146 -0.45368,-1.392992 -0.32686,-1.392992 0.45667,0 2.22381,2.220507 2.84235,3.571567 0.34746,0.758963 0.79454,2.146384 0.9935,3.083158 0.36143,1.701774 0.36202,1.702546 0.68862,0.907229 1.03757,-2.526564 -1.10379,-6.86788 -4.07767,-8.266912 -0.87411,-0.411217 -1.11431,-0.710695 -1.5095,-1.882026 l -0.46997,-1.392992 h 0.85675 c 0.75398,0 3.01719,-0.49163 4.15223,-0.901979 0.28852,-0.104306 0.67121,0.419636 1.39121,1.904704 0.54626,1.126725 1.6507,2.784128 2.45432,3.68312 l 1.46111,1.634529 v 7.187751 c 0,3.953262 -0.0896,7.180947 -0.199,7.172647 -0.10945,-0.008 -0.94114,-0.84083 -1.84821,-1.850037 z m -12.94403,-3.017091 c -1.0491,-0.462369 -2.24179,-1.675929 -2.69047,-2.737534 -0.38433,-0.909377 -0.4979,-3.258836 -0.15752,-3.258836 0.25987,0 6.16463,5.91289 6.16463,6.173114 0,0.327769 -2.47066,0.196108 -3.31664,-0.176744 z m 1.85732,-5.925825 c -1.45933,-1.259141 -2.65332,-2.416963 -2.65332,-2.572938 0,-0.155975 0.50745,-0.459007 1.12766,-0.673406 0.99185,-0.342868 1.26348,-0.342868 2.25532,0 1.11596,0.385771 1.13363,0.411844 1.70289,2.51247 0.62424,2.303507 0.72866,3.059072 0.41976,3.037268 -0.10944,-0.0077 -1.39299,-1.044253 -2.85231,-2.303394 z m -5.19794,-4.655956 c -0.23209,-0.177774 -0.86424,-0.712284 -1.40479,-1.1878 l -0.98281,-0.864573 0.64478,-0.860083 c 0.35463,-0.473045 1.02803,-1.546628 1.49645,-2.38574 0.46841,-0.839111 0.91102,-1.525657 0.98358,-1.525657 0.0726,0 1.01633,0.313975 2.09728,0.697721 l 1.96537,0.697722 0.53823,1.756597 c 0.29603,0.966128 0.59795,1.950948 0.67095,2.188488 0.1096,0.356618 -0.13517,0.45127 -1.40435,0.543074 -0.8454,0.06115 -2.0805,0.374246 -2.74467,0.695768 -1.39581,0.675697 -1.31154,0.66462 -1.86002,0.244483 z"
       id="path3" /></g></svg>
