<?xml version="1.0" encoding="UTF-8" standalone="no"?>
<!-- Created with Inkscape (http://www.inkscape.org/) -->

<svg
   width="160.18488mm"
   height="217.15263mm"
   viewBox="0 0 160.18488 217.15263"
   version="1.1"
   id="svg1"
   xml:space="preserve"
   xmlns="http://www.w3.org/2000/svg"
   xmlns:svg="http://www.w3.org/2000/svg"><defs
     id="defs1"><linearGradient
       id="swatch323"><stop
         style="stop-color:#000000;stop-opacity:1;"
         offset="0"
         id="stop323" /></linearGradient></defs><g
     id="layer1"
     transform="translate(-252.44177,-313.53239)"><path
       style="fill:#000000"
       d="m 290.03128,530.56689 c -4.08461,-0.45706 -8.56382,-1.70909 -13.09688,-3.66084 -14.80931,-6.3763 -21.75607,-12.3935 -23.84068,-20.65053 -1.09202,-4.32545 -0.71149,-162.62737 0.39711,-165.19858 2.22883,-5.16936 4.4987,-6.26403 18.15191,-8.75399 1.30969,-0.23885 2.97656,-0.55294 3.70416,-0.69798 2.00884,-0.40044 14.69346,-2.78615 17.99167,-3.38386 1.60073,-0.29008 6.1251,-1.13741 10.05417,-1.88295 6.63323,-1.25865 11.07259,-2.07774 23.6802,-4.36914 2.69213,-0.48929 8.10948,-1.49814 12.03854,-2.2419 3.92906,-0.74375 8.75109,-1.63758 10.71562,-1.9863 5.11972,-0.90878 13.47109,-2.45758 16.40417,-3.04222 12.95743,-2.58278 17.61917,-1.00165 17.71541,6.00856 0.0127,0.92501 0.57659,1.39837 1.66582,1.39837 2.95923,0 6.70062,2.01528 8.57272,4.61765 1.08846,1.51305 1.39041,1.754 2.83779,2.26451 0.89084,0.31421 3.04847,1.2786 4.79472,2.1431 2.9814,1.47596 3.28879,1.57138 5.04128,1.56494 2.24572,-0.008 4.14923,0.81216 5.08025,2.18959 1.13996,1.68657 0.75933,169.32178 -0.38976,171.6559 -2.48421,5.0461 -3.72315,5.54279 -21.06435,8.44459 -6.86396,1.14858 -15.69461,2.62727 -19.62367,3.28598 -3.92906,0.65871 -9.40594,1.56194 -12.17083,2.00717 -4.6682,0.75173 -10.49262,1.73823 -19.57917,3.31617 -3.44183,0.5977 -8.4553,1.43672 -24.60624,4.11796 -16.43501,2.72839 -20.92051,3.25142 -24.47396,2.8538 z m -5.02952,-17.10147 c -10e-4,-6.51206 0.007,-43.89539 0.0188,-83.07407 0.0117,-39.17869 -0.0452,-71.34141 -0.12636,-71.47272 -0.0812,-0.13131 -0.83374,-0.32401 -1.67241,-0.42822 -8.71785,-1.08321 -22.59326,-8.19246 -25.64761,-13.14089 -2.35482,-3.81511 -2.20075,-8.93916 -2.30831,76.76851 -0.10519,83.81142 -0.19705,80.83291 2.66212,86.31731 2.84628,5.45969 13.01022,12.49595 22.84291,15.81363 4.78503,1.61453 4.23374,3.01964 4.2309,-10.78355 z m 14.87681,10.39157 c 2.51487,-0.36013 6.71562,-1.02129 9.335,-1.46924 2.61937,-0.44796 6.19125,-1.04373 7.9375,-1.32394 1.74624,-0.28021 3.82984,-0.63396 4.6302,-0.78612 0.80037,-0.15215 4.6699,-0.80355 8.59896,-1.44754 3.92906,-0.64399 11.78719,-1.95679 17.4625,-2.91734 9.8234,-1.6626 31.97552,-5.38306 47.33528,-7.94998 13.09748,-2.18885 11.84241,1.39655 11.74395,-33.54932 -0.0892,-31.66697 0.3662,-28.51877 -3.55833,-24.59758 -4.18531,4.18175 -6.39673,5.93219 -11.99694,9.49611 -6.16013,3.92023 -16.13712,8.10288 -24.27552,10.17701 -1.6821,0.4287 -1.7263,0.70111 -0.26411,1.62777 6.99322,4.43193 10.44261,15.13811 7.35733,22.83558 -7.84037,19.56088 -34.93745,17.38935 -37.58315,-3.01187 -0.77237,-5.95577 1.59658,-13.12444 5.47759,-16.57572 1.12477,-1.00024 0.82052,-1.04978 -6.47314,-1.05412 -18.976,-0.0113 -33.92679,-4.3745 -44.74455,-13.05816 -0.92603,-0.74334 -1.78923,-1.28629 -1.91823,-1.20657 -0.28243,0.17455 -0.31419,64.14554 -0.0321,64.56238 0.74806,1.10523 4.40676,1.18818 10.96772,0.24865 z m 60.53187,-20.47359 c 14.17448,-4.56152 15.9201,-24.39291 2.72134,-30.9161 -2.28366,-1.12864 -2.15749,-1.19557 -2.33837,1.24033 -0.57743,7.77606 -11.1888,8.23245 -11.22508,0.48278 -0.0234,-5.01014 -8.82433,4.99502 -9.81052,11.15296 -1.93366,12.07412 9.13833,21.74547 20.65263,18.04003 z m -3.41896,-27.23173 c 1.79571,-1.60447 1.99936,-24.51614 0.23461,-26.39464 -1.25887,-1.34 -3.55113,-1.02442 -4.68017,0.64433 -0.65809,0.97267 -0.5421,24.07521 0.126,25.09485 0.9877,1.50743 3.02077,1.81593 4.31956,0.65546 z m -13.77896,-6.40853 c 6.83069,-0.52143 6.08542,0.57041 6.08542,-8.91535 0,-8.32509 0,-8.32509 -2.71198,-8.10545 -23.11129,1.87178 -42.65132,-3.5659 -55.1364,-15.34357 -1.18448,-1.11737 -2.22627,-2.03158 -2.31511,-2.03158 -1.25559,0 0.0326,20.48712 1.35985,21.62564 10.69628,9.1757 32.04898,14.34812 52.71822,12.77031 z m 20.73704,-2.93411 c 17.35231,-3.97323 32.92613,-12.52541 41.44064,-22.75663 1.19439,-1.4352 2.24817,-22.74275 1.12388,-22.72499 -0.10914,0.002 -0.66787,0.68633 -1.24161,1.52136 -5.75966,8.38248 -16.7409,17.06396 -27.66412,21.8705 -5.3311,2.34584 -6.46733,2.75986 -11.64166,4.24197 -4.89479,1.40205 -4.89479,1.40205 -4.96461,9.90129 -0.0511,6.22674 0.0109,8.49925 0.23184,8.49925 0.1659,0 1.38794,-0.24874 2.71564,-0.55275 z m -18.83755,-16.76935 c 0.33773,-0.0528 1.53634,-0.17559 2.66357,-0.27294 1.99335,-0.17216 2.06935,-0.20459 2.77288,-1.18333 1.96077,-2.72778 7.06874,-3.32574 8.57026,-1.00326 0.20401,0.31557 5.52422,-1.03065 9.72035,-2.45962 15.3547,-5.22897 28.97578,-14.94547 36.24038,-25.85182 1.92792,-2.8944 1.77958,0.93535 1.69738,-43.82099 -0.0762,-41.51294 0.52541,-37.41766 -5.33057,-36.28394 -3.54063,0.68547 -8.90181,1.6731 -19.33999,3.56279 -20.02466,3.62519 -21.27195,3.85254 -26.9875,4.91902 -1.23693,0.23081 -3.20146,0.58279 -4.36562,0.78218 -1.16417,0.19939 -5.74808,1.03343 -10.18646,1.85342 -4.43839,0.81999 -9.61761,1.77278 -11.50938,2.11731 -1.89177,0.34453 -5.7613,1.05928 -8.59895,1.58834 -11.52583,2.14892 -22.94878,4.19752 -28.83958,5.17212 -0.94589,0.15649 -1.98768,0.39391 -2.31511,0.52759 -1.27023,0.51861 -0.8575,71.05079 0.42519,72.66032 3.55008,4.4547 12.04653,10.29157 18.55867,12.74941 8.7261,3.29345 14.90213,4.57154 25.00312,5.17426 1.72361,0.10285 10.82281,-0.0748 11.82136,-0.23086 z m -9.83699,-17.51653 c -3.96621,-0.40054 -7.9375,-2.89822 -7.9375,-4.99216 0,-1.66596 1.36511,-1.82941 2.94591,-0.35272 6.59572,6.16132 19.94325,1.01113 21.64031,-8.34998 0.42906,-2.36673 0.44352,-2.33462 -1.36483,-3.03098 -11.72586,-4.51537 -14.41671,-13.44362 -4.9423,-16.39857 12.24374,-3.81866 23.00051,0.24257 20.10427,7.5904 -1.23003,3.12061 -7.31096,9.04347 -9.28483,9.04347 -0.86423,0 -0.0867,3.86064 1.23006,6.10729 3.64112,6.21262 14.00955,6.78016 17.7266,0.97032 1.01936,-1.59331 3.00939,-1.33614 3.00939,0.3889 0,7.87023 -21.20397,8.53751 -23.67718,0.7451 -0.27422,-0.86398 -0.74103,-0.62296 -1.59052,0.82119 -2.9619,5.03527 -10.53457,8.19747 -17.85938,7.45774 z m -22.11044,-38.04402 c -1.98892,-3.03547 5.27313,-8.34684 10.96209,-8.01754 5.33124,0.3086 10.63735,4.77815 8.06996,6.79765 -1.00521,0.7907 -1.25756,0.70921 -2.78095,-0.89804 -4.00998,-4.2307 -10.13488,-3.48773 -13.36414,1.62111 -0.88726,1.40368 -2.15034,1.62105 -2.88696,0.49682 z m 54.44848,-4.52298 c -1.79999,-1.26076 1.06415,-5.29501 5.20481,-7.33117 4.43509,-2.18096 10.97513,-0.49781 12.98226,3.34112 1.23817,2.36816 -1.53091,3.0277 -3.6403,0.86704 -3.53164,-3.61747 -8.60855,-2.51667 -12.44295,2.69793 -0.6837,0.92978 -1.22664,1.03949 -2.10382,0.42508 z M 289.6344,353.45053 c 0.72761,-0.0881 4.06136,-0.67395 7.40834,-1.30181 3.34698,-0.62786 8.22854,-1.52364 10.84791,-1.99063 2.61938,-0.46698 6.96516,-1.25659 9.65729,-1.75468 2.69213,-0.49808 5.84729,-1.07331 7.01146,-1.27828 1.16416,-0.20497 3.78354,-0.67938 5.82083,-1.05423 2.03729,-0.37485 7.27604,-1.33553 11.64167,-2.13484 4.36562,-0.79932 9.12812,-1.69141 10.58333,-1.98244 1.45521,-0.29103 4.66989,-0.88157 7.14375,-1.3123 2.47385,-0.43073 8.06979,-1.44618 12.43541,-2.25656 11.23145,-2.08485 12.25967,-2.27162 13.89063,-2.52317 1.45713,-0.22474 9.39683,-1.72353 10.51719,-1.98535 0.9177,-0.21446 0.71945,-0.50891 -0.79375,-1.17893 -0.76399,-0.33828 -1.95645,-1.01547 -2.64992,-1.50487 -1.26086,-0.88982 -1.26086,-0.88982 -4.23334,-0.34094 -1.63486,0.30189 -3.92497,0.71505 -5.08914,0.91815 -7.51817,1.31158 -11.88262,2.09013 -15.47812,2.76107 -2.25558,0.4209 -6.24417,1.13863 -8.86354,1.59496 -5.44264,0.94816 -7.2764,1.27388 -13.36146,2.37325 -2.4011,0.4338 -5.43719,0.96603 -6.74688,1.18274 -2.72332,0.45062 -5.61551,0.95458 -9.78958,1.70582 -2.86941,0.51644 -14.41063,2.53741 -19.04999,3.33583 -1.30969,0.22539 -5.11969,0.89032 -8.46667,1.47762 -10.64192,1.86735 -18.61792,3.15668 -19.5278,3.15668 -0.68787,0 -2.01863,-0.89709 -1.74238,-1.17458 0.0886,-0.089 3.24374,-0.75478 7.01145,-1.47956 3.76772,-0.72477 8.63633,-1.66948 10.81915,-2.09936 2.18281,-0.42987 5.63562,-1.087 7.67291,-1.46028 2.03729,-0.37328 4.95433,-0.91408 6.48229,-1.20177 1.52797,-0.28769 5.33797,-0.99841 8.46667,-1.57939 3.12869,-0.58097 7.95072,-1.48193 10.71562,-2.00212 2.7649,-0.5202 6.63443,-1.24093 8.59896,-1.60162 1.96453,-0.3607 5.41734,-1.00022 7.67291,-1.42117 2.25558,-0.42094 6.12511,-1.13577 8.59896,-1.5885 2.47386,-0.45273 5.74807,-1.058 7.27604,-1.34503 1.52797,-0.28704 4.02828,-0.7548 5.55625,-1.03946 1.52797,-0.28467 4.32594,-0.81433 6.21771,-1.17704 1.89177,-0.3627 5.16599,-0.96151 7.27604,-1.33069 6.38136,-1.1165 6.28074,-0.91615 1.52221,-3.03084 -2.45097,-1.0892 -2.45101,-1.08921 -5.02889,-0.56471 -1.34554,0.27376 -3.0104,0.57176 -3.69969,0.66222 -0.68929,0.0905 -1.40366,0.22078 -1.5875,0.28961 -0.18384,0.0688 -2.00113,0.41591 -4.03842,0.77131 -2.03729,0.35539 -5.72823,1.00836 -8.20208,1.45104 -2.47386,0.44267 -4.85511,0.86793 -5.29167,0.94501 -0.43656,0.0771 -1.32953,0.2517 -1.98437,0.38803 -0.65485,0.13634 -3.69094,0.67567 -6.74688,1.19853 -3.05593,0.52285 -6.38968,1.12225 -7.40833,1.33199 -1.01865,0.20973 -3.51896,0.67827 -5.55625,1.04119 -9.89264,1.76227 -15.86257,2.84032 -18.43189,3.32844 -2.80002,0.53195 -5.54607,1.02224 -9.61394,1.71649 -1.16416,0.19868 -3.48588,0.61145 -5.15937,0.91726 -1.67349,0.30581 -4.05474,0.71921 -5.29167,0.91867 -1.23693,0.19946 -3.26099,0.54367 -4.49791,0.76491 -3.84399,0.68757 -8.29822,1.46192 -9.12813,1.58689 -0.43656,0.0657 -2.98756,0.49739 -5.66889,0.95921 -4.77444,0.82233 -6.05557,0.86196 -7.24734,0.22414 -0.2698,-0.14439 -0.43975,-0.31333 -0.37766,-0.37542 0.22056,-0.22056 4.0805,-1.13183 7.20847,-1.70182 1.74625,-0.3182 7.28266,-1.38586 12.30313,-2.37258 5.02047,-0.98671 10.85453,-2.11453 12.96458,-2.50626 2.11005,-0.39173 4.96755,-0.94255 6.35,-1.22403 1.38245,-0.28149 7.27604,-1.40704 13.09687,-2.50122 5.82083,-1.09419 12.13115,-2.28426 14.02292,-2.64461 1.89177,-0.36034 7.6663,-1.43384 12.83229,-2.38555 5.16599,-0.9517 10.16661,-1.89516 11.1125,-2.09658 2.4417,-0.51992 15.4146,-2.96634 18.38854,-3.46769 1.67793,-0.28287 1.71524,-0.34718 1.11359,-1.91929 -0.94254,-2.46285 -1.23246,-2.50881 -7.86047,-1.24588 -2.87433,0.54769 -9.40241,1.76543 -17.72708,3.3068 -6.23607,1.15465 -12.41967,2.31932 -14.81667,2.7907 -0.3638,0.0715 -1.07817,0.19618 -1.5875,0.27697 -0.50932,0.0808 -1.40229,0.25421 -1.98437,0.38539 -0.58208,0.13117 -2.84427,0.55201 -5.02708,0.93519 -3.42169,0.60066 -8.43761,1.54204 -11.1125,2.08558 -0.43656,0.0887 -1.68672,0.32695 -2.77812,0.52942 -1.09141,0.20248 -4.3061,0.79867 -7.14375,1.32488 -2.83766,0.5262 -6.2305,1.13786 -7.53966,1.35924 -1.30915,0.22138 -3.15462,0.57044 -4.10104,0.77569 -0.94642,0.20525 -3.14951,0.62626 -4.89576,0.93559 -1.74625,0.30933 -4.60375,0.84449 -6.35,1.18925 -1.74625,0.34476 -4.18703,0.80546 -5.42396,1.02378 -1.23692,0.21832 -4.21349,0.764 -6.61458,1.21262 -2.40109,0.44863 -6.07659,1.10399 -8.16778,1.45636 -4.83876,0.81535 -5.34869,1.2133 -4.41577,3.44609 1.93577,4.63294 12.05432,9.71754 22.10855,11.10959 2.42995,0.33644 3.11648,0.33551 5.95312,-0.008 z"
       id="path322" /></g></svg>
