<?xml version="1.0" encoding="UTF-8" standalone="no"?>
<!-- Created with Inkscape (http://www.inkscape.org/) -->

<svg
   width="36.440891mm"
   height="56.107155mm"
   viewBox="0 0 36.440891 56.107155"
   version="1.1"
   id="svg1"
   xml:space="preserve"
   xmlns="http://www.w3.org/2000/svg"
   xmlns:svg="http://www.w3.org/2000/svg"><defs
     id="defs1" /><g
     id="layer1"
     transform="translate(-32.205216,-162.07609)"><path
       style="fill:#000000"
       d="m 40.041455,218.11471 c -2.05791,-0.15574 -2.34388,-0.93509 -1.08516,-2.95739 0.34579,-0.55557 0.58211,-1.08553 0.52514,-1.1777 -0.057,-0.0922 -0.67344,-0.16758 -1.36995,-0.16758 -0.69651,0 -1.59723,-0.13824 -2.00162,-0.3072 -0.97948,-0.40926 -0.97756,-1.14074 0.007,-2.60246 0.40813,-0.60603 0.74205,-1.14324 0.74205,-1.1938 0,-0.0506 -0.77259,-0.12701 -1.71688,-0.16989 -1.51537,-0.0688 -1.76613,-0.13879 -2.1365,-0.59618 -0.5699,-0.7038 -0.44722,-1.12503 1.01175,-3.47378 1.55172,-2.49809 2.22683,-2.90803 3.34308,-2.02998 0.67792,0.53326 0.72571,1.31819 0.13459,2.21075 -0.52126,0.78709 -0.5241,0.89373 -0.028,1.05119 0.76399,0.24248 1.44759,-0.26187 2.38594,-1.76032 1.24098,-1.98172 2.19939,-2.4276 3.11747,-1.45034 0.57306,0.60999 0.58376,1.20581 0.0378,2.10135 -0.57714,0.94659 -0.54934,1.01219 0.42893,1.01219 0.83046,0 0.88108,-0.043 1.85513,-1.5745 1.1552,-1.81638 1.88985,-2.29675 2.75663,-1.8025 0.29205,0.16654 0.65894,0.49746 0.81531,0.73538 0.24804,0.3774 0.21516,0.56246 -0.25773,1.45078 -0.29811,0.56001 -0.50014,1.06008 -0.44895,1.11127 0.0512,0.0512 1.25539,0.0662 2.67599,0.0333 l 2.58291,-0.0598 -4.27396,-6.78444 c -2.35068,-3.73145 -6.01551,-9.55123 -8.14406,-12.93285 -2.12855,-3.38162 -4.98016,-7.89738 -6.3369,-10.03501 -2.53149,-3.98853 -2.82512,-4.73538 -2.13363,-5.42686 0.23799,-0.238 0.74781,-0.33317 1.78477,-0.33317 2.16623,0 2.19854,-0.0341 1.35663,-1.43222 -1.32672,-2.20323 -0.84881,-3.02007 1.76695,-3.02007 0.85027,0 1.54293,-0.0919 1.54293,-0.20465 0,-0.11256 -0.28622,-0.65597 -0.63605,-1.20758 -0.87671,-1.38243 -0.85989,-2.27737 0.0516,-2.74874 0.62725,-0.32436 1.69062,-0.34521 12.09929,-0.23721 10.46636,0.10861 11.44552,0.14912 11.82113,0.48904 0.58527,0.52967 0.51027,1.09011 -0.33306,2.48867 -0.40782,0.67633 -0.7415,1.27262 -0.7415,1.32508 0,0.0525 0.70268,0.0954 1.56151,0.0954 1.27627,0 1.66726,0.0832 2.14038,0.45534 0.70694,0.55607 0.64159,1.15961 -0.28709,2.65167 -0.3458,0.55557 -0.58211,1.08554 -0.52515,1.17771 0.057,0.0922 0.74193,0.16898 1.52215,0.1707 1.63748,0.004 2.44911,0.33114 2.54894,1.02862 0.0699,0.48849 -1.99001,4.16956 -2.77347,4.95616 -0.5233,0.5254 -1.47776,0.46984 -2.03017,-0.11819 -0.57306,-0.60999 -0.58376,-1.20581 -0.0377,-2.10135 0.57704,-0.94643 0.54927,-1.01219 -0.42752,-1.01219 -0.82676,0 -0.88167,0.0461 -1.83065,1.53711 -1.13302,1.78015 -1.43659,2.06713 -2.18668,2.06713 -1.37814,0 -1.87643,-1.16694 -1.06593,-2.49629 0.59128,-0.96979 0.53959,-1.10795 -0.41455,-1.10795 -0.80826,0 -0.87243,0.0542 -1.82091,1.53711 -0.54073,0.8454 -1.13602,1.65635 -1.32288,1.80211 -0.82074,0.64022 -2.37884,0.0366 -2.37884,-0.92152 0,-0.28956 0.19081,-0.90049 0.42403,-1.35763 0.23321,-0.45714 0.42403,-0.88266 0.42403,-0.94561 0,-0.063 -1.19258,-0.11446 -2.65018,-0.11446 -1.45759,0 -2.65017,0.0496 -2.65017,0.11032 0,0.10618 0.62657,1.11049 6.21403,9.96034 7.83677,12.41246 12.98578,20.57652 14.07729,22.32038 0.8579,1.37062 1.08372,2.20193 0.74349,2.737 -0.27218,0.42806 -1.28879,0.70231 -2.60341,0.70231 -0.69205,0 -1.25665,0.0716 -1.25466,0.15901 0.002,0.0875 0.28658,0.63604 0.63242,1.21908 1.22498,2.0651 0.70997,2.86219 -1.84929,2.86219 -1.78133,0 -1.83521,0.0873 -0.90303,1.463 0.78546,1.15916 0.8482,2.21494 0.15515,2.61081 -0.3694,0.211 -2.8448,0.27749 -10.97171,0.2947 -5.77208,0.0122 -11.01829,-0.0174 -11.65825,-0.0658 z m 18.30047,-2.94002 c 0.43241,-0.16593 0.44177,-0.31375 0.0535,-0.8451 -0.28493,-0.38997 -0.65451,-0.41498 -7.04947,-0.47707 -3.71182,-0.036 -7.05955,-0.008 -7.43941,0.0629 -0.74397,0.13835 -1.46477,0.98057 -1.20246,1.40501 0.12048,0.19493 1.93805,0.22379 7.72057,0.12257 4.15965,-0.0728 7.72241,-0.19356 7.91723,-0.26832 z m -17.07542,-4.25468 c 0.26704,-0.0715 0.62726,-0.40415 0.8005,-0.73916 l 0.31497,-0.60909 h -0.94748 c -0.73876,0 -1.02019,0.1038 -1.27753,0.4712 -0.64081,0.91489 -0.23353,1.23683 1.10954,0.87705 z m 14.76408,-0.0512 c 0.0636,-0.1029 -0.0808,-0.43682 -0.3209,-0.74204 l -0.43652,-0.55496 h -4.62454 -4.62453 l -0.36477,0.55671 c -0.3005,0.45861 -0.31413,0.58879 -0.0774,0.7388 0.38048,0.24109 10.29969,0.24251 10.44865,0.001 z m 5.63272,0.0281 c -5.8e-4,-0.0875 -0.21525,-0.4203 -0.47704,-0.73965 -0.51359,-0.62653 -1.83594,-0.91165 -2.00567,-0.43245 -0.17247,0.48696 0.92594,1.33111 1.73207,1.33111 0.41343,0 0.75121,-0.0716 0.75064,-0.15901 z m 2.72735,-4.41342 c 0.0419,-0.0371 -0.11186,-0.33532 -0.34164,-0.66271 -0.22978,-0.32738 -2.27624,-3.55284 -4.54768,-7.16767 -2.27145,-3.61484 -5.39674,-8.57597 -6.94509,-11.02473 -1.54836,-2.44876 -4.14945,-6.57508 -5.7802,-9.1696 l -2.96502,-4.71731 h -0.93198 c -0.51259,0 -0.93198,0.0363 -0.93198,0.0806 0,0.10151 4.99745,8.07706 11.24151,17.94058 1.43945,2.27385 4.1176,6.51874 5.95144,9.43308 3.40158,5.40578 3.68932,5.73675 4.75048,5.46415 0.23322,-0.0599 0.45829,-0.13929 0.50016,-0.17639 z m -5.85114,-0.56891 c -0.47213,-0.7924 -9.94846,-15.86671 -12.5617,-19.98231 -0.96254,-1.5159 -3.0406,-4.80741 -4.61791,-7.31448 -1.57732,-2.50706 -2.97298,-4.62839 -3.10147,-4.71406 -0.27921,-0.18615 -1.82374,-0.21662 -1.82374,-0.036 0,0.0695 0.17824,0.37952 0.39608,0.68904 0.21783,0.30952 1.01386,1.56453 1.76894,2.78891 0.75507,1.22438 2.61028,4.18197 4.12269,6.57243 1.5124,2.39046 5.2102,8.25794 8.21734,13.03885 3.00714,4.78092 5.6031,8.90724 5.7688,9.16961 0.24082,0.3813 0.49596,0.47703 1.27139,0.47703 h 0.97012 z m -17.0476,-35.11764 c 0.63463,-0.40215 -0.47243,-1.50782 -1.50971,-1.50782 -0.66332,0 -0.82312,0.18048 -0.57324,0.64739 0.51232,0.95728 1.3706,1.31182 2.08295,0.86043 z m 13.61562,-0.46967 c 0.3853,-0.5411 0.4161,-0.69115 0.17344,-0.84481 -0.33473,-0.21197 -10.22184,-0.26655 -10.4308,-0.0576 -0.23153,0.23152 0.54525,1.32459 1.00624,1.41598 0.24031,0.0477 2.31471,0.0996 4.60977,0.1155 l 4.17284,0.0289 z m 5.41604,0.12191 c 0.8259,-0.8259 0.36391,-1.38353 -0.88627,-1.06975 -0.50912,0.12778 -1.25442,1.22186 -1.00336,1.47292 0.32616,0.32616 1.38653,0.0999 1.88963,-0.40317 z m -2.97223,-4.07849 c 0.1283,-0.0857 0.3429,-0.36403 0.47687,-0.61856 0.20339,-0.38642 0.18239,-0.48048 -0.12727,-0.56996 -0.20397,-0.0589 -3.24432,-0.17321 -6.75633,-0.25394 -6.11681,-0.14061 -9.19755,-0.0339 -9.19755,0.31855 0,0.0903 0.23396,0.41662 0.51991,0.72517 l 0.51991,0.56099 7.16559,-0.003 c 3.94108,-0.002 7.27057,-0.0733 7.39887,-0.15901 z"
       id="path1" /></g></svg>
