<?xml version="1.0" encoding="UTF-8" standalone="no"?>
<!-- Created with Inkscape (http://www.inkscape.org/) -->

<svg
   width="267.46048mm"
   height="197.3335mm"
   viewBox="0 0 267.46048 197.3335"
   version="1.1"
   id="svg1"
   xml:space="preserve"
   xmlns:xlink="http://www.w3.org/1999/xlink"
   xmlns="http://www.w3.org/2000/svg"
   xmlns:svg="http://www.w3.org/2000/svg"><defs
     id="defs1"><linearGradient
       id="linearGradient33"><stop
         style="stop-color:#32d0c7;stop-opacity:1;"
         offset="0.22637795"
         id="stop33" /><stop
         style="stop-color:#f1f3f9;stop-opacity:1;"
         offset="0.85433072"
         id="stop34" /></linearGradient><linearGradient
       xlink:href="#linearGradient33"
       id="linearGradient39"
       gradientUnits="userSpaceOnUse"
       gradientTransform="translate(227.5948,-58.401942)"
       x1="-29.282974"
       y1="148.49997"
       x2="239.28239"
       y2="148.49997"
       spreadMethod="repeat" /></defs><g
     id="layer1"
     transform="translate(-198.86463,8.5686863)"><path
       style="fill:url(#linearGradient39);stroke:none;stroke-width:3.5;stroke-dasharray:none;stroke-opacity:1;paint-order:markers stroke fill"
       d="m 331.42082,188.59806 c 0,-0.0436 -1.73653,-3.70476 -3.85897,-8.13594 -2.12244,-4.43117 -5.35072,-11.21184 -7.17396,-15.06814 -9.85551,-20.84522 -9.46751,-20.3306 -21.71932,-28.80717 -1.93369,-1.33785 -3.64872,-2.3503 -3.81119,-2.24988 -0.17382,0.10742 -0.22162,0.0632 -0.11615,-0.10747 0.47339,-0.76596 -6.1411,-3.82142 -9.62249,-4.44495 -6.92003,-1.23941 -11.45334,-0.0258 -19.77276,5.29344 -1.92548,1.2311 -4.45641,2.73549 -5.62429,3.34309 -1.35139,0.70307 -2.4194,1.47843 -2.9375,2.13258 -0.93004,1.17428 -1.17711,1.25714 -1.38443,0.46433 -0.099,-0.37864 -0.28385,-0.51116 -0.56335,-0.4039 -0.85716,0.32892 -3.84892,0.51433 -3.84892,0.23853 0,-0.15005 0.19068,-0.34599 0.42372,-0.43541 0.36055,-0.13836 0.33097,-0.24178 -0.19844,-0.69369 -0.62215,-0.53109 -0.62215,-0.53109 1.01578,-0.36248 3.11174,0.32033 4.85754,-0.36284 10.73134,-4.1994 2.29236,-1.49729 2.42369,-1.70481 1.19062,-1.88131 -0.47294,-0.0677 -2.22911,-0.31074 -3.9026,-0.54009 -8.02087,-1.09927 -8.99583,-1.28023 -8.99583,-1.66973 0,-0.29194 0.23675,-0.34953 0.99218,-0.24138 4.49957,0.64422 4.6453,0.57993 3.39434,-1.49751 -0.48933,-0.81262 -0.82739,-1.5398 -0.75124,-1.61595 0.25954,-0.25954 1.12078,0.38593 1.50416,1.1273 1.73336,3.35196 7.77005,4.31165 12.85222,2.04319 5.71099,-2.54912 7.15688,-2.99668 10.47309,-3.24183 2.2701,-0.16782 2.791,-0.58164 1.43774,-1.14217 -0.38554,-0.1597 -1.52656,-0.87921 -2.53559,-1.59892 -12.78968,-9.12241 -23.22083,-11.65358 -31.9259,-7.74698 -1.5373,0.6899 -2.33582,0.67259 -1.37523,-0.0298 0.77982,-0.57022 0.27297,-0.79505 -1.95346,-0.86652 -1.11881,-0.0359 -2.12349,-0.0683 -2.23263,-0.0719 -0.44164,-0.0146 -0.16282,-0.53573 0.28663,-0.53573 0.84899,0 0.86099,-0.33565 0.0301,-0.84097 -0.44324,-0.26955 -0.73625,-0.60277 -0.65114,-0.74049 0.1621,-0.26228 0.41098,-0.18945 2.60535,0.76228 1.37594,0.59677 3.98296,0.7484 5.36254,0.31189 0.4219,-0.13349 1.09451,-0.31435 1.49469,-0.40191 1.2657,-0.27695 0.84987,-1.0239 -2.71197,-4.8716 -1.89177,-2.04359 -3.43959,-3.78158 -3.43959,-3.8622 0,-0.37365 0.92631,-0.0821 1.63575,0.51488 1.10295,0.92807 1.27467,0.84106 1.27467,-0.64584 0,-1.39723 0.3657,-1.98259 0.62777,-1.00483 0.0873,0.32579 0.16038,1.26625 0.16237,2.08993 0.004,1.70155 0.72832,2.82374 3.50782,5.43545 1.74448,1.63916 1.59885,1.60209 6.94683,1.76866 2.52987,0.0788 4.91922,0.30112 5.93784,0.55251 2.38855,0.58948 2.56775,0.44611 1.55187,-1.24165 -1.75877,-2.92199 -2.67057,-4.81042 -3.49439,-7.23722 -0.46829,-1.37947 -0.94002,-2.41953 -1.04829,-2.31126 -0.10828,0.10828 -0.12627,0.0129 -0.04,-0.21197 0.22152,-0.57728 -1.39486,-4.276954 -2.85418,-6.532824 -2.38277,-3.6834 -5.93087,-6.35119 -10.4174,-7.83277 -1.56453,-0.51665 -2.38411,-1.21673 -1.42443,-1.21673 0.31843,0 0.81585,0.12678 1.1054,0.28174 0.84142,0.45032 1.19427,0.15085 0.5644,-0.47902 -0.8258,-0.82581 -1.49301,-1.91939 -1.17104,-1.91939 0.15402,0 0.91185,0.66812 1.68407,1.48471 0.82135,0.86854 2.06287,1.81421 2.99155,2.27867 0.87312,0.43668 1.79659,0.9783 2.05214,1.2036 0.72151,0.63609 0.84895,0.19197 0.37025,-1.29024 -0.24091,-0.74594 -0.43802,-1.55723 -0.43802,-1.80286 0,-1.16497 -1.3284,-5.31832 -2.07566,-6.48974 -0.85266,-1.33664 -1.04153,-1.99872 -0.57017,-1.99872 0.14552,0 0.26458,0.0974 0.26458,0.21652 0,0.11909 0.40275,0.66922 0.895,1.22252 l 0.89499,1.00601 0.3276,-1.02409 c 0.18017,-0.56325 0.41883,-1.12376 0.53035,-1.24558 0.42675,-0.46618 0.48659,0.31618 0.11789,1.54129 -1.00391,3.33573 0.86647,9.66598 4.02695,13.62916 0.87035,1.09141 1.98786,2.57969 2.48335,3.30729 l 0.90089,1.32292 0.18036,-1.32292 c 0.0992,-0.7276 0.38801,-2.77182 0.6418,-4.54271 0.4606,-3.21394 0.46041,-3.2222 -0.10949,-4.54696 -0.31402,-0.72995 -0.57094,-1.3944 -0.57094,-1.47656 0,-0.33884 0.74925,-0.11783 0.89587,0.26425 0.0873,0.22751 0.25768,0.35249 0.37863,0.27774 0.12095,-0.0747 0.21108,0.0914 0.20031,0.36927 -0.0108,0.27785 0.0995,0.49181 0.24499,0.47546 0.14552,-0.0164 0.22512,-0.26261 0.1769,-0.54725 -0.0482,-0.28465 0.0212,-0.45023 0.15434,-0.36796 0.13311,0.0823 0.25685,0.006 0.27497,-0.16952 0.0181,-0.1755 0.2065,-0.97393 0.41861,-1.7743 0.21212,-0.80036 0.46065,-1.90169 0.5523,-2.44739 0.26981,-1.60644 0.71248,-1.16891 0.66922,0.66145 -0.0215,0.90951 -0.0297,1.7637 -0.0182,1.89821 0.0115,0.13451 0.31803,-0.0346 0.68126,-0.37587 0.91462,-0.85924 1.1425,-0.4658 0.34006,0.58713 -5.7131,7.49651 -4.32078,20.635374 3.00707,28.376744 2.77831,2.93509 12.10419,9.41431 13.74971,9.5527 0.23487,0.0197 0.58503,0.13356 0.77813,0.2529 0.1931,0.11934 0.0968,-0.19452 -0.21407,-0.69747 -2.23703,-3.61959 -3.20541,-6.61358 -3.8899,-12.02656 -0.60741,-4.80347 -1.97303,-7.38835 -6.29548,-11.916234 -1.12778,-1.18139 -2.05052,-2.2246 -2.05052,-2.31825 0,-0.32902 0.58749,-0.16478 1.34822,0.37691 0.42265,0.30095 0.77682,0.44978 0.78705,0.33073 0.0102,-0.11905 0.12092,0.0217 0.24598,0.31271 0.15828,0.36833 0.23305,-0.0136 0.24599,-1.25677 0.0184,-1.76335 0.3354,-2.34806 0.64558,-1.19063 0.0877,0.32743 0.16117,1.04052 0.16315,1.58467 0.005,1.50851 0.89097,3.519144 2.22136,5.044094 2.62022,3.00339 3.01526,3.40351 3.14668,3.18717 0.0751,-0.12363 0.47242,-1.98095 0.88292,-4.12738 0.76879,-4.019844 1.16099,-4.891304 1.16099,-2.579694 0,1.594164 0.281,1.660364 1.48203,0.34914 0.49057,-0.53558 0.96276,-0.90296 1.04931,-0.81641 0.29475,0.29475 -0.45685,1.390824 -1.77187,2.583944 -1.29256,1.17274 -1.31803,1.22638 -1.69632,3.57187 -1.85148,11.47974 3.02804,20.05369 14.78122,25.97249 5.11668,2.57673 11.31452,6.35223 13.68932,8.33904 1.62527,1.35974 1.61795,1.37591 0.73975,-1.63204 -2.40573,-8.23996 -5.20656,-13.28009 -9.99999,-17.99512 -2.7508,-2.7058 -2.85404,-2.85044 -3.96622,-5.55625 -0.62805,-1.52796 -1.84383,-4.25457 -2.70173,-6.05912 -2.07514,-4.36495 -1.8723,-4.32829 5.09014,0.92002 14.00701,10.55854 16.15087,14.07731 18.902,31.02448 1.30935,8.06565 2.44925,12.63201 4.33132,17.35095 0.41043,1.02908 0.58332,0.78357 1.75382,-2.49048 5.55955,-15.55074 2.18368,-28.4595 -11.37686,-43.50324 -3.57562,-3.96671 -7.00053,-6.75711 -17.73821,-14.451944 -2.91042,-2.08567 -6.77995,-4.87835 -8.59896,-6.20597 -4.35074,-3.17542 -7.49293,-5.29484 -7.73906,-5.22002 -0.10914,0.0332 -0.19844,-0.049 -0.19844,-0.18268 0,-0.28384 -1.89035,-1.50406 -2.18281,-1.409 -0.10914,0.0355 -0.19844,-0.0397 -0.19844,-0.16703 0,-0.12735 -0.92273,-0.8613 -2.05052,-1.63101 -1.12779,-0.7697 -3.92312,-2.75776 -6.21186,-4.4179 -2.28874,-1.66013 -4.28167,-2.94406 -4.42874,-2.85317 -0.15652,0.0967 -0.20206,-0.005 -0.10983,-0.24535 0.13906,-0.36238 10e-4,-0.45381 -0.59394,-0.39395 -0.0911,0.009 -0.30648,-0.25872 -0.4785,-0.59531 -0.17202,-0.33659 -0.51288,-0.59566 -0.75747,-0.57571 -0.24458,0.0199 -0.39073,-0.051 -0.32478,-0.15775 0.066,-0.10671 -0.67947,-0.78868 -1.65649,-1.51548 -4.05854,-3.01914 -8.99499,-5.28078 -10.90454,-4.99596 -0.65008,0.097 -0.76835,0.0711 -0.39687,-0.0867 1.92073,-0.81605 -7.58671,-0.64371 -9.92306,0.17988 -2.96841,1.04639 -8.2009,4.13024 -8.2009,4.8333 0,0.13817 -0.1523,0.25122 -0.33844,0.25122 -0.50924,0 -3.55527,3.0301 -5.45247,5.42396 -1.63947,2.06865 -2.955,3.05759 -4.59399,3.45349 -1.10079,0.26589 -0.89686,-0.31368 0.33073,-0.93995 1.87383,-0.95596 1.14695,-1.6908 -1.04941,-1.06089 -0.58519,0.16783 -1.00515,0.1705 -1.16822,0.007 -0.42098,-0.42099 1.92228,-1.31548 3.46313,-1.32198 1.41754,-0.006 2.22798,-0.7265 4.81076,-4.27702 0.53524,-0.73578 0.42508,-0.76397 -3.23987,-0.82892 -5.80721,-0.10291 -4.58487,-0.92851 1.54924,-1.04639 l 3.70416,-0.0712 2.86782,-2.1481 c 3.3428,-2.50387 5.62614,-3.9067 7.38479,-4.53708 2.02177,-0.72469 1.58243,-1.1065 -2.06538,-1.79491 -4.45321,-0.84041 -10.81005,-0.23396 -18.1091,1.72763 -2.41307,0.6485 -6.17134,1.40337 -12.03854,2.41799 -0.87313,0.151 -1.94469,0.45489 -2.38125,0.67533 -1.4863,0.7505 -2.69396,1.09655 -3.05281,0.87476 -0.25751,-0.15914 -0.0905,-0.34509 0.60986,-0.67908 1.20961,-0.57682 1.49537,-1.16676 0.56517,-1.16676 -0.36881,0 -0.91194,0.12919 -1.20697,0.28708 -0.57516,0.30782 -1.81005,0.12287 -1.81005,-0.2711 0,-0.13117 0.37276,-0.32038 0.82835,-0.42044 0.82835,-0.18194 0.82835,-0.18194 0.0662,-0.7944 -1.12837,-0.90669 -0.25975,-1.1143 1.65882,-0.39647 1.62622,0.60845 4.26617,0.69202 6.68224,0.21155 0.66852,-0.13295 1.57268,-0.30407 2.00924,-0.38028 2.36228,-0.41237 2.74151,-0.87151 1.29212,-1.5644 -0.74454,-0.35594 -2.17329,-1.3729 -3.175,-2.25991 -2.23448,-1.97864 -3.80055,-3.08148 -5.50379,-3.8758 -0.95239,-0.44416 -1.22262,-0.68548 -1.00797,-0.90014 0.28812,-0.28812 3.16524,0.64688 3.50683,1.13965 0.49311,0.71133 0.7602,-0.30103 0.48765,-1.84834 -0.16023,-0.90965 -0.22593,-1.7193 -0.146,-1.79923 0.25513,-0.25513 0.7097,0.18628 0.7097,0.68915 0,6.21497 6.07594,9.24151 14.94896,7.44638 1.60073,-0.32385 3.74385,-0.7546 4.7625,-0.95723 1.01865,-0.20262 2.8381,-0.45055 4.04322,-0.55096 2.6379,-0.21979 2.73825,-0.32532 1.30621,-1.37361 -1.51843,-1.11152 -2.61203,-2.25046 -4.11706,-4.28774 -1.43518,-1.94273 -3.48133,-4.99699 -3.48133,-5.19656 0,-1.11975 -6.32526,-7.552888 -9.12917,-9.284868 -3.94166,-2.43476 -7.99655,-4.34747 -9.98697,-4.71088 -1.33121,-0.24306 -1.34093,-0.91602 -0.0132,-0.91602 0.76141,0 0.9084,-0.0706 0.66145,-0.3175 -0.17462,-0.17462 -0.3175,-0.41275 -0.3175,-0.52917 0,-0.47461 0.6851,-0.1481 2.05414,0.97896 0.79543,0.65485 1.58139,1.20582 1.74657,1.22439 1.58542,0.17825 1.47787,0.3038 1.30702,-1.52574 -0.21628,-2.31614 0.27131,-2.18182 0.85382,0.23521 0.54205,2.24915 0.73747,2.46958 3.47254,3.91695 1.14141,0.60402 2.9482,1.751 4.01509,2.54884 1.06689,0.79784 2.00006,1.390348 2.07371,1.316698 0.82669,-0.826688 -0.96653,-12.178298 -1.83866,-11.639298 -0.14973,0.0925 -0.1937,0.0412 -0.0977,-0.11414 0.096,-0.15532 -0.48093,-1.23392 -1.28204,-2.39689 -0.80111,-1.162982 -1.45657,-2.244922 -1.45657,-2.404322 0,-0.51206 0.46437,-0.31093 1.14232,0.49476 0.7446,0.88492 0.97435,0.66362 0.97435,-0.93851 0,-0.49743 0.10493,-0.90441 0.23317,-0.90441 0.26162,0 0.82517,2.02254 0.82516,2.961442 -1e-5,2.64613 2.16873,5.04128 3.06825,3.38856 1.37782,-2.53152 1.48924,-1.61739 0.22573,1.85209 -1.45726,4.00152 0.3891,12.691118 3.45213,16.246878 0.36422,0.42282 0.66223,0.8608 0.66223,0.97329 0,0.11249 0.14903,0.36186 0.33119,0.55416 0.18216,0.19229 0.64325,0.82587 1.02464,1.40796 0.93543,1.42766 3.65182,4.14428 3.95596,3.95631 0.13445,-0.0831 0.24446,0.0371 0.24446,0.26708 0,0.22999 0.32293,0.56444 0.71763,0.74322 0.3947,0.17878 0.98595,0.57307 1.3139,0.87621 0.58488,0.54062 2.75324,1.69016 5.11222,2.7102 0.65484,0.28316 1.77158,0.77652 2.48163,1.09635 0.71005,0.31983 2.61505,0.87181 4.23333,1.22662 1.61828,0.35482 4.23402,0.93947 5.81276,1.29922 3.53194,0.80485 3.77479,0.70283 2.67015,-1.12162 -0.46016,-0.76 -0.93186,-1.29578 -1.04822,-1.19062 -0.11637,0.10516 -0.12366,0.0387 -0.0162,-0.14769 0.11207,-0.1944 -0.14737,-0.94617 -0.60851,-1.76326 -0.44213,-0.78341 -1.45918,-2.93889 -2.26013,-4.78995 -2.92946,-6.7703 -9.25656,-14.406858 -11.93647,-14.406858 -0.19188,0 -0.53198,-0.18311 -0.75578,-0.40691 -0.2238,-0.2238 -1.57176,-1.01057 -2.99546,-1.74837 -1.42371,-0.73781 -2.73739,-1.46225 -2.91929,-1.60987 -0.1819,-0.14762 -0.33451,-0.16452 -0.33914,-0.0376 -0.005,0.12696 -0.16566,0.0237 -0.35784,-0.22938 -0.19219,-0.25312 -0.78372,-0.64167 -1.31451,-0.86345 -0.53079,-0.22178 -0.96507,-0.5207 -0.96507,-0.66426 0,-0.46013 1.21338,-0.28036 2.77793,0.41156 2.01509,0.89117 2.08511,0.81639 1.17187,-1.25153 -0.9271,-2.0993 -1.23466,-3.38982 -0.80787,-3.38982 0.16371,0 0.29765,0.1295 0.29765,0.28778 0,0.55415 2.67295,5.70021 3.12022,6.00715 2.27284,1.55974 3.86626,2.43632 4.42866,2.43632 0.17811,0 0.47096,0.17729 0.65079,0.39397 0.17983,0.21667 0.42236,0.335 0.53897,0.26293 0.1166,-0.0721 0.25896,0.01 0.31636,0.18205 0.20398,0.61193 0.78097,-0.089 0.61561,-0.74782 -0.089,-0.35469 -0.33499,-1.95756 -0.5466,-3.56193 -0.39635,-3.00513 -0.90698,-4.4985 -2.25815,-6.60411 -0.89096,-1.38843 -0.93461,-1.56675 -0.38356,-1.56675 0.21828,0 0.39687,0.15325 0.39687,0.34057 0,0.18731 0.23813,0.35851 0.52917,0.38043 0.45702,0.0344 0.52917,-0.12324 0.52917,-1.15637 0,-1.358132 0.61166,-1.530172 0.73132,-0.20569 0.25362,2.80731 0.63682,3.11817 1.75706,1.42537 0.38863,-0.58727 0.81427,-1.00123 0.94585,-0.91991 0.25638,0.15845 0.0314,0.75192 -1.12654,2.97107 -0.88083,1.68814 -0.88057,1.63454 -0.0269,5.5173 0.81827,3.72163 1.52171,5.4186 2.84398,6.860768 0.53369,0.58208 1.76066,2.21472 2.72661,3.62808 2.06575,3.02259 2.07507,3.02267 2.28803,0.0189 0.20571,-2.90143 0.70274,-4.77622 2.15931,-8.144888 0.77209,-1.78562 1.20535,-3.22647 1.33263,-4.43177 0.21544,-2.04023 0.92069,-2.61446 0.92069,-0.74965 0,0.56996 0.13879,1.08255 0.30843,1.13909 0.23409,0.078 0.23485,0.31388 0.003,0.97849 -0.45035,1.29187 -0.15801,1.43749 1.29655,0.64582 0.7177,-0.39063 1.38417,-0.63098 1.48103,-0.53412 0.29275,0.29276 -1.0238,1.50808 -2.38329,2.20004 -1.54202,0.78486 -2.28197,2.18621 -2.97186,5.628218 -0.53283,2.65838 -0.2213,7.92559 0.40849,6.90657 0.10407,-0.16838 0.18316,0.20726 0.17577,0.83475 -0.0261,2.21675 2.52047,7.58652 5.38588,11.3568 0.95811,1.26068 5.79572,6.09927 6.86018,6.86159 0.49888,0.35727 1.21326,0.90132 1.5875,1.20899 1.09903,0.90352 3.3869,2.28543 6.50128,3.92687 3.42189,1.80351 9.2601,5.29942 14.81666,8.87218 2.18281,1.40351 6.05235,3.83107 8.59896,5.39458 12.76334,7.83613 28.30764,21.195884 30.80571,26.476384 2.16361,4.5735 5.43015,13.99668 9.7729,28.19247 4.53519,14.82489 4.58469,14.90026 6.45899,9.83434 4.48011,-12.10901 3.0299,-21.28933 -4.13868,-26.19919 -2.49593,-1.7095 -2.65613,-1.8933 -2.07238,-2.37777 0.26147,-0.21699 0.69461,-3e-5 1.78407,0.89365 1.55374,1.27453 1.73078,1.35291 1.91883,0.84948 0.079,-0.21162 0.20146,-0.14015 0.33991,0.19844 0.22502,0.55032 1.14506,1.4311 1.51087,1.44641 0.73628,0.0308 -0.94665,-4.9242 -2.45966,-7.2419 -1.60573,-2.45973 -1.73619,-3.13502 -0.41218,-2.1336 0.76844,0.58122 0.86614,0.50072 1.05389,-0.86831 0.50448,-3.67859 0.8167,-3.59821 1.02771,0.26459 0.16534,3.02668 0.76163,5.37213 1.96882,7.74413 1.23934,2.43518 3.41581,9.75443 3.89303,13.09181 0.36199,2.53158 0.43207,2.73472 0.80882,2.34436 1.88263,-1.95066 8.35113,-18.75115 7.78985,-20.23239 -1.07834,-2.84579 -10.18651,-7.77656 -14.36494,-7.77656 -0.55829,0 -0.97228,-0.0893 -0.91998,-0.19844 0.84175,-1.75645 1.1664,-2.20087 1.52701,-2.09034 0.2235,0.0685 2.31137,0.86083 4.6397,1.76072 8.82609,3.41125 8.45288,3.4005 6.85175,0.19733 -1.44792,-2.89665 -2.34125,-4.06176 -5.45079,-7.10911 -2.09145,-2.04964 -2.80939,-3.14349 -2.06318,-3.14349 0.1451,0 0.71065,0.39479 1.25677,0.87731 1.0931,0.96581 2.57335,2.03311 2.81973,2.03311 0.69681,0 -1.09867,-3.39223 -2.69412,-5.09002 -0.61781,-0.657454 -0.64785,-0.785834 -0.325,-1.389074 0.47793,-0.89302 0.6043,-0.85473 1.73567,0.52596 1.29914,1.585434 1.32384,1.566464 1.64531,-1.26352 0.28344,-2.49524 0.084,-4.68499 -0.48981,-5.37632 -0.39531,-0.47632 -0.29763,-0.73027 2.99254,-7.77995 1.59603,-3.41974 3.85239,-8.42037 5.01411,-11.1125 1.16173,-2.69214 2.54765,-5.72824 3.07982,-6.74689 2.96773,-5.68064 11.66891,-14.58314 18.70012,-19.13277 13.50901,-8.741158 14.81334,-10.256878 16.89115,-19.628668 4.4273,-19.969002 -0.27599,-35.983336 -10.56805,-35.983336 -0.20349,0 -0.36998,-0.119063 -0.36998,-0.264583 0,-0.174846 10.25503,-0.264584 30.23592,-0.264584 33.579,0 31.412,-0.118373 31.412,1.715896 0,1.674132 -0.54112,1.86023 -6.08542,2.092868 -16.61616,0.697213 -28.34744,10.253657 -36.73604,29.925607 -2.79352,6.551032 -5.23169,12.061252 -7.35929,16.63188 l -2.07659,4.46104 -2.90935,1.31097 c -17.25468,7.77503 -22.39332,11.76872 -27.08988,21.05391 -0.75967,1.50191 -1.05885,1.6026 7.15564,-2.40825 3.97942,-1.943 8.24733,-4.01631 9.48426,-4.60734 3.43379,-1.64076 6.03763,-3.47088 8.00471,-5.62615 2.06174,-2.259 2.11944,-2.23495 0.82823,0.34523 -3.4072,6.80852 -7.60308,10.63543 -18.62252,16.98502 -10.80556,6.22633 -15.2698,9.91823 -19.52551,16.14744 -1.55638,2.27813 -2.00283,4.63021 -0.87887,4.63021 0.35033,0 0.817,-1.01697 0.51315,-1.11826 -0.25225,-0.0841 0.0291,-0.9823 0.46759,-1.49293 0.80295,-0.935 0.87463,1.02967 0.089,2.43996 -2.28613,4.10399 -1.184,10.932154 2.78219,17.236854 2.43263,3.86693 2.27282,3.95608 2.92658,-1.63271 0.85706,-7.32679 0.45199,-11.734874 -1.43062,-15.568304 -0.67809,-1.38074 -1.10633,-2.51044 -0.95164,-2.51044 0.40132,0 1.8227,1.56395 2.35238,2.58833 1.48627,2.8744 1.30821,-4.02703 -0.23345,-9.0481 -0.78688,-2.56282 0.0484,-1.64519 0.94291,1.03581 l 0.61791,1.85208 0.33236,-1.7828 c 0.1828,-0.98055 0.46056,-2.02234 0.61724,-2.31511 0.34986,-0.65372 0.88492,-0.70753 0.68882,-0.0693 -1.34348,4.37269 -1.09964,5.96397 0.34449,2.24801 0.49463,-1.27279 1.11971,-2.52715 1.38906,-2.78748 0.26935,-0.26033 0.48972,-0.64282 0.48972,-0.84997 0,-0.64443 1.08294,-3.30691 1.34506,-3.30691 0.47513,0 -0.0966,2.25499 -1.39248,5.49241 -2.51898,6.29288 -2.72892,8.32228 -2.11419,20.436764 l 0.18125,3.57187 0.7132,-2.11667 c 0.9668,-2.86927 1.20264,-4.52055 1.39817,-9.789584 0.39145,-10.54822 4.78203,-14.72327 26.96239,-25.63885 9.33884,-4.59592 12.24937,-6.57869 16.11418,-10.97774 5.91445,-6.73201 7.11223,-19.701438 2.10288,-22.769678 -3.73515,-2.28778 -4.35283,-3.13477 -1.25733,-1.7241 1.0914,0.49736 1.98437,0.86232 1.98437,0.811 0,-0.0513 -0.17859,-0.52073 -0.39687,-1.04315 -0.50723,-1.21396 -0.50069,-1.51925 0.0282,-1.31631 0.36323,0.13939 0.41133,-0.035 0.33073,-1.19909 -0.14294,-2.06443 0.45764,-1.71734 0.67347,0.3892 0.0987,0.96309 0.48447,2.48113 0.85734,3.37344 1.61876,3.87383 1.96746,4.869028 2.3429,6.686618 0.21868,1.05869 0.39759,2.84714 0.39759,3.97432 v 2.04943 l 1.30534,-1.97213 c 0.71794,-1.08467 2.08974,-2.85671 3.04844,-3.93787 1.633,-1.84158 1.7995,-2.150748 2.63608,-4.894788 1.95115,-6.4 1.96018,-7.14896 0.11328,-9.40548 -1.2563,-1.53494 -0.85209,-1.81462 0.54252,-0.37538 1.43309,1.47895 1.60423,1.29814 1.61185,-1.70305 0.004,-1.611352 0.63922,-1.318432 0.74652,0.34429 0.0822,1.27307 0.0822,1.27307 0.84915,0.3762 0.84843,-0.99211 1.07548,-0.59231 0.29388,0.51749 -1.15729,1.64322 -1.65366,3.06757 -2.04169,5.85865 -0.22135,1.59213 -0.61821,3.67288 -0.88192,4.6239 -0.26371,0.95102 -0.43356,1.72912 -0.37745,1.72912 0.0561,0 0.54614,-0.26888 1.08895,-0.59751 0.54281,-0.32864 2.15359,-1.18581 3.5795,-1.90484 2.80986,-1.41688 3.20744,-1.86549 5.10996,-5.76588 0.68225,-1.39869 1.16101,-1.91555 1.16101,-1.25339 0,0.14737 -0.53578,1.36236 -1.19062,2.69996 -0.65485,1.3376 -1.19063,2.45335 -1.19063,2.47945 0,0.0261 0.92049,-0.41499 2.04553,-0.98017 2.01351,-1.01154 2.71619,-1.20478 3.07523,-0.84574 0.10003,0.10003 -1.69582,1.14221 -3.99079,2.31596 -10.36727,5.302278 -13.59286,8.548548 -17.76202,17.875848 -1.00802,2.25515 -2.50322,5.23036 -3.32268,6.61158 -0.81947,1.38122 -1.37351,2.55011 -1.23121,2.59754 0.306,0.102 9.03641,-1.61448 12.01327,-2.36191 7.60083,-1.90844 15.23756,-8.27098 19.3343,-16.1084 2.08625,-3.991178 2.80689,-10.092578 1.61233,-13.651098 -0.9935,-2.9596 -0.59377,-3.36677 0.67648,-0.68907 l 0.5898,1.2433 0.78391,-1.71979 c 0.49043,-1.07594 0.88045,-2.51223 1.04176,-3.83646 0.38943,-3.196872 1.14516,-3.800622 0.82796,-0.661462 l -0.1203,1.190632 0.93453,-1.058342 c 0.51399,-0.58208 0.939,-1.14763 0.94447,-1.25677 0.0137,-0.27425 0.80368,-0.25157 0.80368,0.0231 0,0.12183 -0.46022,0.86597 -1.0227,1.65364 -2.59249,3.630362 -3.39412,5.999342 -3.87837,11.461272 -0.4696,5.296668 -0.61233,4.975688 1.44012,3.23847 0.9148,-0.77429 3.06559,-2.21428 4.77952,-3.19997 3.11625,-1.79216 3.11625,-1.79216 3.43094,-3.74294 0.46475,-2.88097 1.18785,-2.97724 0.80352,-0.10699 -0.26647,1.99006 0.56561,1.91274 3.18496,-0.29593 1.36385,-1.15001 2.12338,-1.2418 1.0793,-0.13043 -0.59174,0.62988 -0.59174,0.62988 0.61632,0.49371 1.48507,-0.16739 1.66869,0.35564 0.21587,0.6149 -5.66841,1.01151 -14.21364,7.261668 -18.32847,13.405808 -3.05559,4.56252 -5.58105,7.60786 -7.89937,9.5255 l -1.99483,1.65007 3.51264,0.33268 c 1.93194,0.18298 5.43943,0.76083 7.7944,1.28412 9.63374,2.14069 14.22458,0.0752 15.39458,-6.92617 0.27136,-1.62382 0.4421,-1.93348 0.64449,-1.16884 0.16634,0.62843 0.0514,1.7168 -0.38502,3.64412 -0.19607,0.866 -0.19607,0.866 1.74899,-0.0661 1.86722,-0.89485 2.89111,-1.15555 2.88151,-0.73371 -0.002,0.10914 -0.67645,0.48948 -1.49771,0.8452 -0.82126,0.35573 -2.68839,1.63649 -4.14917,2.84616 -2.46569,2.04181 -3.55472,2.73148 -5.59339,3.5422 -0.79375,0.31566 -0.79375,0.31566 0.79375,0.81792 4.47617,1.41618 7.96638,1.52365 11.10584,0.34196 1.85456,-0.69805 2.62617,-0.45258 1.00499,0.31972 l -0.99833,0.47559 1.12448,0.23879 c 1.7345,0.36833 1.33176,0.7365 -0.71428,0.65297 -1.01131,-0.0413 -1.93404,0.0206 -2.05052,0.13743 -0.24883,0.24969 0.86989,1.22528 1.40504,1.22528 0.20216,0 0.36757,0.11906 0.36757,0.26458 0,0.49162 -0.96112,0.26881 -2.13745,-0.49551 -0.97513,-0.63359 -1.54417,-0.78574 -3.4188,-0.91414 -2.64685,-0.18129 -6.81368,-1.01606 -13.26534,-2.65758 -7.67486,-1.95274 -12.86099,-2.22336 -18.22008,-0.95073 -2.72472,0.64704 -2.72719,0.5755 0.0548,1.58771 1.87567,0.68243 4.68598,2.51136 7.59162,4.94059 2.2225,1.8581 2.2225,1.8581 5.82083,1.99747 1.97909,0.0767 3.8067,0.22447 4.06136,0.32847 1.0834,0.44246 0.2798,0.66165 -2.42576,0.66165 -4.0648,0 -4.01125,-0.0744 -1.8252,2.53518 1.73741,2.074 1.93493,2.22732 2.86949,2.22732 1.12649,0 3.96115,0.99323 3.96115,1.38794 0,0.14278 -0.20495,0.1688 -0.46302,0.0588 -0.25466,-0.10856 -1.16424,-0.25587 -2.02129,-0.32736 -1.85376,-0.15463 -1.82576,0.15218 0.10306,1.12959 2.14897,1.08896 2.10941,1.45065 -0.0826,0.75501 -1.66405,-0.52809 -2.04393,-0.85658 -4.71004,-4.07277 -11.04668,-13.32591 -23.25229,-13.77953 -44.28759,-1.64596 -14.47166,8.34754 -18.16875,12.64161 -25.80072,29.966844 -1.05771,2.4011 -4.36105,9.42578 -7.34076,15.61042 -5.03049,10.44121 -7.93864,16.75204 -8.38237,18.19011 -0.2645,0.85723 0.0976,0.74365 1.77036,-0.55526 2.53247,-1.96651 6.79751,-4.32174 10.38474,-5.73464 12.74554,-5.02009 18.802,-13.99415 16.98003,-25.15991 -0.67162,-4.11597 -0.86836,-4.64085 -2.22763,-5.94327 -1.38645,-1.328454 -1.34779,-1.868044 0.0571,-0.796504 0.93325,0.711824 0.93325,0.711824 0.93325,-0.62457 0,-0.73501 0.11906,-1.33638 0.26458,-1.33638 0.14552,0 0.26458,0.29305 0.26458,0.65121 0,1.474074 1.58255,7.209514 1.95901,7.099814 1.59771,-0.46553 4.67648,-5.738414 4.85282,-8.311234 0.19409,-2.83175 0.84699,-2.31573 0.85818,0.67826 0.003,0.77951 0.003,0.77951 0.8754,-0.0661 1.49645,-1.45041 1.62445,-0.92584 0.19716,0.808 -5.99114,7.277874 -6.34438,7.956884 -6.64122,12.766144 -0.28396,4.60041 -0.9239,7.19988 -2.58914,10.51719 -1.48694,2.96213 -1.48977,2.95834 1.07548,1.43923 14.19437,-8.40571 18.28168,-14.03162 18.29773,-25.185584 0.008,-5.45912 -0.41793,-7.45823 -2.23111,-10.47507 -1.38646,-2.30685 -1.52387,-2.91266 -0.37658,-1.66015 0.69445,0.75813 0.69445,0.75813 0.55894,0.0967 -0.35188,-1.71755 -0.49587,-4.03915 -0.24074,-3.88147 0.14798,0.0915 0.34396,0.55572 0.4355,1.03169 0.74989,3.89901 1.7568,5.9726 2.28316,4.70186 0.18083,-0.43656 0.43339,-0.79375 0.56126,-0.79375 0.36711,0 0.271,0.90627 -0.15598,1.47078 -0.52978,0.70044 -0.50163,1.76543 0.15695,5.93755 0.81874,5.18676 0.53247,5.10531 3.4866,0.992 3.848,-5.35792 5.73046,-10.76835 4.84483,-13.92468 -0.73748,-2.62837 -0.31133,-3.53003 0.50574,-1.07006 l 0.44611,1.34309 0.82595,-1.34309 c 0.45427,-0.7387 0.91794,-1.34309 1.03037,-1.34309 0.4217,0 0.17778,0.82908 -0.63029,2.14236 -0.45908,0.74612 -0.92071,1.7897 -1.02583,2.31908 -0.21839,1.09977 -1.70992,6.53102 -1.99992,7.28247 -0.23011,0.59629 -0.18444,0.57873 1.99699,-0.76762 0.93963,-0.57993 2.49698,-1.79856 3.46077,-2.70806 0.96379,-0.90951 1.83212,-1.65365 1.92961,-1.65365 0.40554,0 0.12111,0.58979 -0.74879,1.55266 -1.14191,1.26396 -1.14955,1.38492 -0.0679,1.07471 1.04379,-0.29936 1.78768,-0.31685 1.78768,-0.042 0,0.11225 -1.0418,0.5219 -2.3151,0.91034 -5.88078,1.79399 -9.81511,6.37836 -12.89465,15.025154 -1.28945,3.62054 -2.52138,6.28444 -4.01297,8.67761 -1.4511,2.32818 -1.48534,2.27182 0.97373,1.60293 1.47568,-0.4014 3.11788,-0.57247 6.47503,-0.67455 5.40961,-0.16447 5.71572,-0.29033 8.56935,-3.52344 1.88169,-2.13192 1.88169,-2.13192 1.88169,-4.37182 0,-2.42609 0.39508,-3.01277 0.66207,-0.98313 0.0909,0.69122 0.18751,1.41135 0.21465,1.60028 0.0333,0.23208 0.34497,0.12478 0.96063,-0.33073 0.93376,-0.69086 1.60224,-0.86804 1.60224,-0.42466 0,0.13727 -0.21771,0.40516 -0.4838,0.59531 -1.00943,0.72137 -6.97605,7.67518 -6.75711,7.8751 1.10802,1.01174 5.46163,1.23588 7.92743,0.40814 1.08375,-0.36381 2.14654,-0.66146 2.36176,-0.66146 0.77576,0 0.36803,0.45305 -0.73318,0.81466 l -1.12448,0.36926 1.12448,0.0847 c 1.91346,0.14415 1.24005,0.52431 -1.10258,0.62245 -2.42633,0.10164 -2.90167,0.29633 -2.11966,0.86814 0.94866,0.69368 0.1791,0.71473 -1.42633,0.039 -4.87096,-2.05015 -13.45706,-1.94772 -19.47973,0.2324 -3.13411,1.1345 -4.42792,1.85639 -8.67104,4.83806 -3.37018,2.36825 -7.27506,4.83131 -7.65944,4.83131 -1.20555,0 0.25748,0.48794 1.82962,0.6102 2.5377,0.19736 5.71714,1.105 9.43809,2.69431 3.20678,1.36971 4.73427,1.72885 7.26677,1.70856 1.67221,-0.0134 5.74053,-0.56042 5.93897,-0.79855 0.052,-0.0624 0.59368,-0.85762 1.20371,-1.76713 1.51179,-2.25394 2.25902,-2.30596 0.98828,-0.0688 -1.07629,1.89485 -0.80362,2.14738 2.11639,1.96005 1.72826,-0.11088 2.48268,-0.0707 2.48268,0.13229 0,0.16036 -0.0795,0.29157 -0.17658,0.29157 -0.21293,0 -9.59453,0.99295 -11.93619,1.26333 -2.34299,0.27054 -2.27287,0.36378 2.55058,3.39138 4.69016,2.94395 5.37664,3.18807 8.1344,2.89274 1.87924,-0.20125 2.12302,-0.0584 0.83248,0.48796 -0.8599,0.36402 -0.8599,0.36402 -0.13229,0.55861 0.80769,0.21601 0.98806,0.66816 0.26458,0.66325 -0.25466,-0.002 -1.11786,-0.1789 -1.91823,-0.39373 -2.15102,-0.57736 -2.59921,-0.54709 -1.98291,0.13391 0.97313,1.07529 0.0986,0.8344 -1.12462,-0.30978 -0.69498,-0.65007 -2.15533,-1.69655 -3.24522,-2.32551 -1.08989,-0.62895 -3.4303,-2.01032 -5.2009,-3.0697 -11.14852,-6.67037 -18.08592,-7.38329 -27.13647,-2.7887 -12.07437,6.12966 -14.86597,7.84714 -18.32231,11.27249 -2.55459,2.53169 -1.96244,1.42467 -10.40104,19.44458 -2.62363,5.60255 -6.03797,12.86536 -7.58742,16.13958 -1.54945,3.27422 -3.18682,6.7568 -3.6386,7.73907 -0.65516,1.42446 -1.26467,2.247 -1.26467,1.70668 z M 316.47187,92.474356 c -0.99607,-0.76602 -5.02577,-3.19095 -7.01146,-4.21925 -3.56079,-1.84395 -12.45583,-7.25202 -17.72708,-10.77782 -17.5677,-11.75055 -21.61563,-17.47335 -29.89073,-42.258318 -0.90646,-2.71495 -3.42672,-9.074482 -3.66967,-9.259922 -0.0957,-0.073 -0.21565,-0.37091 -0.26657,-0.66195 -0.0509,-0.29104 -0.22952,-0.61664 -0.39688,-0.72355 -0.16735,-0.10692 -0.2139,-0.19621 -0.10343,-0.19844 0.20929,-0.004 -2.3765,-5.32835 -2.70049,-5.5603 -0.10164,-0.0728 -0.26218,-0.34198 -0.35676,-0.59826 -0.231,-0.62594 -2.98794,-4.84258 -3.56422,-5.45134 -0.2522,-0.26641 -0.69667,-0.82197 -0.98771,-1.23456 -0.29105,-0.41259 -0.85659,-1.1121 -1.25678,-1.55447 -0.40018,-0.44237 -0.7276,-0.90683 -0.7276,-1.03214 0,-0.41819 -5.11343,-5.21647 -6.60183,-6.19495 -0.80738,-0.53077 -1.52749,-1.04764 -1.60025,-1.14859 -0.83882,-1.163864 -9.95019,-4.709188 -13.22917,-5.147604 -2.02549,-0.270817 -7.24428,-0.592441 -7.86864,-0.484929 -1.61446,0.277998 -3.13657,-1.195495 -2.87373,-2.781939 0.0635,-0.383493 0.12531,-0.772113 0.13728,-0.863599 0.10397,-0.794893 23.70575,-1.162023 42.75197,-0.665014 1.74625,0.04557 8.08633,0.102436 14.08906,0.126373 10.05464,0.04009 12.22204,0.188432 10.18646,0.697165 -0.99844,0.24953 -5.09323,2.295794 -5.09323,2.545209 0,0.111062 -0.17449,0.240426 -0.38776,0.287476 -1.45784,0.321626 -5.8739,5.144835 -7.75331,8.468142 -4.62078,8.1708 -4.58184,17.7568 0.10975,27.015202 1.51121,2.98224 2.30157,6.10393 2.74117,10.826928 0.34908,3.75043 0.78624,6.33 1.04557,6.16972 0.10966,-0.0678 0.14714,0.15007 0.0833,0.4841 -0.30241,1.58197 2.2395,7.17771 4.81507,10.59984 1.97557,2.62492 7.4261,7.56872 8.11855,7.36379 0.12293,-0.0364 0.2235,0.0728 0.2235,0.24253 0,0.16978 0.0783,0.23034 0.1741,0.13459 0.0958,-0.0958 0.35617,-0.0263 0.5787,0.15434 0.3424,0.27794 0.37573,0.2515 0.21676,-0.17192 -0.10332,-0.27519 -0.29625,-1.54807 -0.42873,-2.82862 -0.13248,-1.28055 -0.35868,-2.54367 -0.50266,-2.80694 -0.64281,-1.17538 -2.361,-3.22892 -2.55487,-3.05351 -0.11768,0.10648 -0.13709,0.059 -0.0431,-0.10561 0.17346,-0.30378 -1.23414,-2.30092 -1.46148,-2.07358 -0.0681,0.0681 -0.12383,-0.0342 -0.12383,-0.22742 0,-0.19319 -0.38903,-0.9167 -0.86452,-1.6078 -1.04305,-1.51602 -2.86739,-5.34547 -3.09954,-6.5062 -0.0922,-0.46081 -0.24579,-0.71128 -0.34139,-0.55659 -0.0956,0.15469 -0.17595,-0.16313 -0.17855,-0.70626 -0.0309,-6.458218 -2.0444,-19.93938 -2.86615,-19.190028 -0.12717,0.11596 -0.15579,0.0786 -0.0636,-0.0831 0.0922,-0.16169 -0.10868,-1.5259 -0.44636,-3.03158 -0.33768,-1.50569 -0.66331,-2.58959 -0.72362,-2.40866 -0.0603,0.18093 -0.10825,-2.10466 -0.10653,-5.07908 0.002,-2.97442 0.0771,-5.28834 0.16751,-5.14205 0.0904,0.14629 0.25082,-0.31029 0.35644,-1.01461 0.39933,-2.66295 3.17878,-9.880419 4.11249,-10.679014 0.44273,-0.378668 1.3198,-1.856389 1.3198,-2.223657 0,-0.232197 0.10135,-0.422177 0.22522,-0.422177 0.12388,0 0.97397,-0.684609 1.88911,-1.521354 4.07814,-3.728795 2.98143,-3.505729 17.23597,-3.505729 14.10517,0 13.72262,-0.05049 13.72262,1.811076 0,1.401526 -0.69991,1.700672 -4.84217,2.069566 -19.43331,1.730656 -29.01697,15.844939 -21.68415,31.935219 1.4154,3.10579 1.41874,3.00829 -0.31185,9.10329 -2.5122,8.847778 -2.5797,12.987478 -0.28556,17.514728 0.9324,1.84002 1.29261,1.6113 1.48476,-0.94276 0.2827,-3.75749 1.55818,-8.16682 3.08893,-10.6784 1.80608,-2.963328 1.62182,-2.962258 3.10051,-0.018 1.2139,2.41703 1.4267,3.26938 0.89784,3.59623 -0.42532,0.26286 -1.97628,3.76357 -2.59702,5.86175 -3.09644,10.46647 1.82653,20.85658 12.68204,26.7659 2.65498,1.44526 2.77866,1.38711 1.55291,-0.73005 -0.6735,-1.1633 -1.28086,-2.74045 -1.68702,-4.38071 -0.84856,-3.42687 -1.54237,-4.85695 -4.28409,-8.83035 -3.57715,-5.18416 -4.15955,-8.5682 -2.05943,-11.96627 0.17737,-0.28699 5.21936,9.73765 9.51863,18.92524 1.49811,3.20146 4.34377,9.1422 6.32371,13.20165 4.05844,8.32099 4.13476,8.53246 2.67383,7.40895 z m 54.63646,-46.12286 c 0,-0.16308 0.9661,-2.34767 2.1469,-4.854628 4.33786,-9.20972 7.43177,-16.256362 8.10012,-18.448732 4.15477,-13.62867 -6.37228,-26.085229 -23.05119,-27.276242 -4.76806,-0.340479 -5.68425,-0.936151 -4.77305,-3.103259 0.43154,-1.026325 -1.21348,-0.929849 14.53451,-0.852405 15.03649,0.07395 14.50023,-0.02873 18.71706,3.583681 5.87469,5.032651 7.26008,9.808405 5.52594,19.049265 -0.38092,2.02985 -0.54868,4.01958 -0.55448,6.57639 -0.0196,8.658282 -2.83308,12.784962 -14.5604,21.35678 -5.12224,3.74399 -6.08541,4.37221 -6.08541,3.96915 z"
       id="path1-2" /></g></svg>
