<?xml version="1.0" encoding="UTF-8" standalone="no"?>
<!-- Created with Inkscape (http://www.inkscape.org/) -->

<svg
   width="208.49007mm"
   height="156.26135mm"
   viewBox="0 0 208.49007 156.26135"
   version="1.1"
   id="svg1"
   xml:space="preserve"
   xmlns="http://www.w3.org/2000/svg"
   xmlns:svg="http://www.w3.org/2000/svg"><defs
     id="defs1" /><g
     id="layer1"
     transform="translate(-1.2932616,-106.35082)"><path
       style="fill:#000000"
       d="m 99.583987,262.41995 c -5.149706,-0.73007 -9.54034,-2.45171 -10.785267,-4.2291 -0.273143,-0.38996 -0.886146,-0.57486 -2.591461,-0.78166 -13.282691,-1.6107 -29.09265,-2.29993 -43.143814,-1.88083 -12.224723,0.36461 -18.57945,0.81663 -32.247162,2.29374 -6.0428877,0.65308 -6.5491544,0.67215 -7.4686854,0.28142 -0.5499309,-0.23368 -1.2226674,-0.80668 -1.520365,-1.29496 -0.5318796,-0.87239 -0.5339711,-1.13957 -0.5339711,-68.21227 0,-66.3193 0.0078,-67.34925 0.516477,-68.1835 0.8614427,-1.41282 1.6867228,-1.6665 5.4215304,-1.6665 H 10.5517 v -2.53389 c 0,-3.47483 0.150768,-3.61592 5.423958,-5.07567 4.078545,-1.12904 9.396413,-2.35348 13.361457,-3.07648 11.758295,-2.14403 26.451331,-2.26941 37.43854,-0.31947 13.86866,2.46132 24.85929,6.9659 35.663675,14.61698 1.71595,1.21515 3.17257,2.20937 3.23692,2.20937 0.0644,0 1.10117,-0.75472 2.30404,-1.67715 7.76487,-5.95456 16.49016,-10.15167 27.22048,-13.09382 8.58549,-2.35405 14.25703,-3.19308 23.00218,-3.40287 13.86449,-0.33259 25.43751,1.26828 39.7387,5.49698 2.29851,0.67964 2.58087,1.16777 2.58087,4.46164 v 2.39438 h 3.40046 c 3.10153,0 3.47915,0.053 4.29562,0.60326 0.49235,0.33179 1.04398,0.89733 1.22585,1.25677 0.26192,0.5176 0.3315,14.64641 0.33459,67.93696 0.004,74.35669 0.14993,68.27939 -1.66259,69.38455 -1.09342,0.66669 -1.36014,0.65961 -9.97518,-0.26498 -12.8853,-1.38288 -18.62418,-1.78773 -30.16498,-2.128 -13.35076,-0.39363 -27.9534,0.18125 -40.46575,1.59308 -4.606,0.51971 -4.61948,0.52316 -5.55625,1.42078 -1.59873,1.5319 -3.88174,2.5033 -7.95051,3.38285 -2.8084,0.6071 -11.50482,0.90164 -14.419793,0.48839 z M 13.462116,251.57444 c 18.765475,-1.89145 36.171776,-2.54936 49.873956,-1.8851 7.86749,0.38141 21.015184,1.57272 25.090531,2.27346 2.219096,0.38156 -1.506466,-1.99835 -5.620569,-3.59045 -6.941826,-2.68638 -15.920376,-4.24921 -27.010587,-4.70153 -10.622898,-0.43325 -22.550012,0.46525 -37.835414,2.85024 -4.620156,0.72089 -5.597402,0.72772 -5.169964,0.0361 0.590792,-0.95593 8.652463,-3.89931 15.598047,-5.69499 3.933097,-1.01684 9.763474,-2.08562 13.913582,-2.55053 4.137937,-0.46355 13.988158,-0.39531 18.24686,0.12641 12.678695,1.55321 24.033531,5.51574 31.711546,11.06647 l 2.201117,1.59127 0.577008,-0.51974 c 0.317354,-0.28585 1.088623,-0.81758 1.71393,-1.18162 l 1.136922,-0.6619 -1.517382,-1.3868 c -0.834559,-0.76274 -3.09957,-2.43507 -5.033357,-3.7163 -11.988553,-7.94297 -25.087495,-11.68849 -40.966853,-11.7141 -12.57533,-0.0203 -24.147018,2.19557 -34.492878,6.60498 -3.048256,1.29917 -3.875758,1.32653 -4.794521,0.15851 -0.529718,-0.67343 -0.53239,-0.96256 -0.53239,-57.5927 V 124.17025 H 8.6996164 6.8475331 v 64.08869 64.0887 l 0.7276042,-0.12658 c 0.4001822,-0.0696 3.0493227,-0.36059 5.8869787,-0.64662 z m 190.590374,-2.58701 c 0.0946,-1.85539 0.17254,-30.69828 0.17313,-64.09531 l 0.001,-60.72187 h -1.85208 -1.85209 v 56.96895 c 0,37.17951 -0.0912,57.13937 -0.26255,57.45954 -0.1444,0.26982 -0.66563,0.62361 -1.15828,0.7862 -1.00157,0.33055 -0.92736,0.35155 -5.9875,-1.69477 -12.67872,-5.12727 -29.75973,-7.07954 -43.92083,-5.01993 -12.70386,1.84766 -25.7959,7.38048 -34.08772,14.40578 l -1.94084,1.64439 1.14709,0.66796 c 0.6309,0.36738 1.39774,0.89338 1.70409,1.1689 0.55305,0.49737 0.57746,0.48657 3.43959,-1.52188 7.38887,-5.18502 18.38444,-8.91802 31.22436,-10.60068 4.13346,-0.54168 14.11857,-0.61245 18.60418,-0.13185 6.87746,0.73687 14.47645,2.53248 21.01808,4.9665 3.59129,1.33625 6.66674,2.73588 7.44221,3.38694 0.50635,0.4251 0.47212,0.43882 -0.79375,0.318 -0.72761,-0.0694 -2.40295,-0.31168 -3.72299,-0.53831 -9.83582,-1.68865 -22.63802,-2.83601 -31.86347,-2.85567 -12.24667,-0.0261 -21.89987,1.18062 -30.03021,3.75394 -3.05774,0.96781 -8.27447,3.43333 -9.0171,4.26164 l -0.50789,0.5665 0.79375,-0.15957 c 1.30406,-0.26217 12.34024,-1.45599 17.59479,-1.90329 6.70928,-0.57114 25.66091,-0.80468 33.60208,-0.41408 7.56876,0.37227 17.67017,1.19361 24.60625,2.00071 2.83765,0.3302 5.23029,0.61708 5.31698,0.63753 0.0867,0.0204 0.23503,-1.48088 0.32965,-3.33627 z M 102.62669,187.42981 V 129.9071 l -1.67164,-1.3137 c -11.426277,-8.97956 -26.630974,-14.51798 -43.798426,-15.95389 -4.687758,-0.39209 -15.730197,-0.17025 -20.411176,0.41006 -6.110439,0.75752 -13.485374,2.20771 -19.645311,3.863 l -0.992188,0.26662 v 57.36028 c 0,31.54816 0.0644,57.42468 0.143106,57.50339 0.07871,0.0787 0.984864,-0.19945 2.013679,-0.61813 5.302529,-2.15788 14.359973,-4.14836 22.846339,-5.02075 4.591302,-0.47198 14.841458,-0.41154 19.074456,0.11248 15.533546,1.92295 28.323639,7.05641 39.171713,15.72206 1.476018,1.17908 2.762968,2.27208 2.859888,2.42889 0.0969,0.15682 0.22872,0.28512 0.29289,0.28512 0.0642,0 0.11667,-25.88522 0.11667,-57.52272 z m -50.270826,-8.10752 v -23.82607 l -8.599142,0.0797 -8.599142,0.0797 1.84e-4,-3.10885 1.84e-4,-3.10886 h 8.598958 8.598958 v -8.86354 -8.86353 h 3.175 3.175 v 8.86353 8.86354 h 8.598958 8.598958 l 1.66e-4,3.10886 1.66e-4,3.10885 -8.599124,-0.0765 -8.599124,-0.0765 v 23.8229 23.82291 h -3.175 -3.175 z m 57.549836,64.55545 c 0.72678,-0.82131 5.28768,-4.44839 6.77507,-5.38792 l 1.22178,-0.77175 0.17827,-1.87287 c 0.0981,-1.03008 0.38401,-3.77787 0.63547,-6.10621 l 0.45721,-4.23333 1.1193,3.13737 c 0.90429,2.53467 1.11931,3.48769 1.11931,4.96094 0,1.00296 0.0456,1.82356 0.10121,1.82356 0.0557,0 1.57371,-0.70682 3.37344,-1.57072 1.79972,-0.8639 4.51455,-1.99862 6.03294,-2.5216 3.17049,-1.092 3.45487,-1.27464 3.4628,-2.22393 0.0107,-1.2782 0.96413,-2.79127 3.39204,-5.38298 1.32473,-1.41411 2.46756,-2.84286 2.53963,-3.175 0.0721,-0.33214 0.1646,-1.74178 0.20563,-3.13254 0.0666,-2.25603 0.16853,-2.71356 0.94579,-4.24374 1.36181,-2.68095 2.67039,-4.22626 4.73343,-5.58968 1.57257,-1.03928 2.00057,-1.48455 2.54326,-2.64583 1.24383,-2.66168 1.26441,-2.58689 -0.71179,-2.58689 -4.05039,0 -7.59222,-2.69411 -8.74216,-6.64977 -0.37835,-1.30148 -0.4165,-4.17527 -0.35283,-26.57507 l 0.0714,-25.11578 0.7039,-1.50155 c 0.89632,-1.91202 2.5662,-3.72618 4.14631,-4.50456 1.11998,-0.55171 1.70417,-0.62082 6.26229,-0.74077 l 5.02708,-0.13229 0.15607,-1.19062 c 0.2498,-1.90578 1.24216,-4.15255 2.12992,-4.8223 1.73984,-1.31258 2.02281,-1.70755 2.34544,-3.2737 0.90227,-4.37987 1.59228,-5.7015 3.85411,-7.38212 1.19753,-0.88981 1.53054,-1.33219 2.09128,-2.77813 0.36681,-0.94588 1.14342,-2.42047 1.72579,-3.27686 0.58237,-0.85638 1.05885,-1.66005 1.05885,-1.78593 0,-0.12588 -1.33945,-0.24845 -2.97656,-0.27237 -11.90673,-0.17398 -18.84518,0.60456 -28.49353,3.19716 -2.20989,0.59382 -4.0472,1.07967 -4.08291,1.07967 -0.0357,0 -0.21604,1.27992 -0.40072,2.84427 -0.18467,1.56435 -0.44548,3.71609 -0.57957,4.78164 -0.13408,1.06556 -0.25021,2.49431 -0.25806,3.175 -0.0136,1.18135 -0.0677,1.08876 -1.19062,-2.03628 -1.0186,-2.83485 -1.17636,-3.55577 -1.17636,-5.37564 0,-2.47575 0.40789,-2.43694 -4.23333,-0.40289 -5.18856,2.27393 -11.71922,6.28094 -15.41198,9.45632 l -1.25677,1.08069 v 57.4092 c 0,54.73239 0.0217,57.39758 0.46598,57.15983 0.25629,-0.13717 0.70277,-0.51698 0.99219,-0.84403 z m 85.06057,-69.30121 v -57.38019 l -1.44382,-0.41973 c -2.63875,-0.7671 -7.90071,-1.96025 -11.78506,-2.67225 -3.82692,-0.70148 -5.92357,-0.73548 -7.5366,-0.1222 -0.93545,0.35566 -2.91902,3.12934 -4.19525,5.86635 -1.0455,2.24218 -1.30037,2.5766 -2.76702,3.63075 -1.88085,1.35184 -2.29505,2.09497 -2.85739,5.12654 -0.49552,2.67133 -1.20342,4.01426 -2.67831,5.08093 -0.7697,0.55666 -1.19833,1.11109 -1.40008,1.81101 -0.15993,0.5548 -0.35645,1.17988 -0.43672,1.38906 -0.11342,0.29557 0.11626,0.38032 1.03073,0.38032 1.55126,0 4.08846,1.27077 5.3705,2.68983 0.5382,0.59572 1.29229,1.75226 1.67576,2.57009 l 0.69722,1.48696 v 25.66458 25.66458 l -0.83468,1.76176 c -0.95492,2.01556 -2.47793,3.62129 -4.27368,4.50582 -1.06988,0.52698 -1.7266,0.62357 -4.74737,0.69823 -1.92815,0.0477 -3.50572,0.17607 -3.50572,0.28537 0,0.1093 -0.35323,0.73199 -0.78494,1.38376 -0.43171,0.65177 -0.9603,1.93677 -1.17464,2.85557 -0.46989,2.0142 -1.039,2.66868 -3.39895,3.9088 -1.91773,1.00774 -2.90713,1.96824 -4.06807,3.94922 -0.65144,1.11161 -0.74724,1.58948 -0.89056,4.44229 -0.18635,3.70941 -0.25374,3.8707 -2.88351,6.90062 -1.01031,1.16405 -1.80315,2.15023 -1.76186,2.19152 0.0413,0.0413 1.55974,-0.22555 3.37436,-0.59297 5.70866,-1.15588 9.86153,-1.54023 16.74754,-1.55001 6.8125,-0.01 10.12327,0.25033 16.45347,1.29216 6.2129,1.02252 14.61598,3.23727 17.01529,4.48463 0.36324,0.18883 0.7502,0.28787 0.8599,0.22007 0.10971,-0.0678 0.19946,-25.94437 0.19946,-57.50347 z m -33.7237,22.06675 c 1.75864,-0.83453 1.82677,-1.11918 1.9737,-8.2458 l 0.1323,-6.4165 -9.472,3.6e-4 -9.472,3.6e-4 0.0793,6.46543 0.0793,6.46542 0.79375,0.83811 c 0.43656,0.46096 1.03188,0.93725 1.32292,1.05843 0.29104,0.12118 3.48773,0.22787 7.10376,0.23709 5.47941,0.014 6.72192,-0.0531 7.45899,-0.4029 z m 2.03329,-27.49398 0.0727,-9.39282 -9.61946,1.1e-4 c -8.66295,1e-4 -9.60348,0.0417 -9.45885,0.41863 0.0883,0.23018 0.1606,4.4569 0.1606,9.39271 v 8.97419 h 9.38615 9.38615 z m -14.78303,6.49771 c -0.75491,-0.32257 -0.9683,-0.7136 -0.78593,-1.44019 0.15666,-0.6242 1.14183,-1.22095 2.01563,-1.22095 1.5052,0 2.63549,1.44665 1.79049,2.29165 -0.48383,0.48382 -2.24763,0.69961 -3.02019,0.36949 z m 8.10886,-0.0772 c -0.40823,-0.2143 -0.69336,-0.62192 -0.7448,-1.06478 -0.069,-0.5941 0.0741,-0.79265 0.83198,-1.15404 1.05309,-0.50218 2.04501,-0.34958 2.82997,0.43538 0.61341,0.61341 0.62762,0.75831 0.13773,1.40475 -0.46854,0.61827 -2.19159,0.83187 -3.05488,0.37869 z m -8.55795,-5.44902 c -0.98671,-1.09031 -0.13176,-2.16198 1.72476,-2.16198 1.80115,0 2.67817,1.2203 1.58684,2.20795 -0.681,0.61629 -2.7381,0.58773 -3.3116,-0.046 z m 8.20208,0 c -1.04098,-1.15028 -0.27125,-2.16198 1.64489,-2.16198 1.07115,0 1.40617,0.1133 1.73869,0.58804 0.53005,0.75675 0.5197,0.89164 -0.11729,1.52862 -0.7042,0.7042 -2.64563,0.73114 -3.26629,0.0453 z m -8.05192,-5.21969 c -1.23127,-0.86242 -0.29276,-2.23396 1.52863,-2.23396 1.11594,0 2.11666,0.62545 2.11666,1.32292 0,0.69746 -1.00072,1.32291 -2.11666,1.32291 -0.51733,0 -1.20521,-0.18534 -1.52863,-0.41187 z m 8.02982,-0.004 c -0.46104,-0.46104 -0.52934,-1.1119 -0.17535,-1.67088 0.12779,-0.20177 0.82652,-0.42395 1.55274,-0.49373 1.09563,-0.10527 1.41572,-0.0316 1.88029,0.43301 0.69477,0.69477 0.6996,0.94931 0.0307,1.61821 -0.66233,0.66233 -2.67022,0.73157 -3.28839,0.11339 z m 6.99255,-14.34727 c -0.1938,-8.45015 0.17519,-8.1329 -9.42386,-8.10205 -7.45109,0.0239 -7.86409,0.1149 -8.95531,1.97237 -0.48602,0.8273 -0.54685,1.452 -0.62383,6.40679 l -0.0853,5.4901 9.6103,3.7e-4 9.61031,3.7e-4 z"
       id="path1" /></g></svg>
