<?xml version="1.0" encoding="UTF-8" standalone="no"?>
<!-- Created with Inkscape (http://www.inkscape.org/) -->

<svg
   width="158.03415mm"
   height="135.87808mm"
   viewBox="0 0 158.03415 135.87808"
   version="1.1"
   id="svg1"
   xml:space="preserve"
   xmlns="http://www.w3.org/2000/svg"
   xmlns:svg="http://www.w3.org/2000/svg"><defs
     id="defs1" /><g
     id="layer1"
     transform="translate(-21.074376,-123.79109)"><path
       style="fill:#000000"
       d="m 93.484724,257.92379 c -0.539582,-0.95996 -1.80308,-3.16501 -2.807773,-4.9001 l -1.826715,-3.15472 1.169901,-2.03048 c 0.643446,-1.11676 1.91118,-3.31619 2.817187,-4.88762 l 1.647286,-2.85715 h 5.69883 5.69882 l 1.64613,2.85715 c 0.90537,1.57143 2.17159,3.77086 2.81383,4.88762 l 1.1677,2.03048 -1.82671,3.15472 c -1.0047,1.73509 -2.26819,3.94014 -2.80778,4.9001 l -0.98105,1.74537 h -5.7143 -5.714298 z m -18.777407,-32.52684 -2.802341,-4.85548 2.814778,-4.8781 2.814778,-4.8781 5.714297,0.002 5.714297,0.002 2.801455,4.87701 2.801454,4.87702 -2.468752,4.27296 c -1.357814,2.35013 -2.618468,4.53426 -2.801455,4.85363 l -0.332702,0.58067 -5.726735,0.001 -5.726734,10e-4 z m 36.357013,4.27213 c -0.18299,-0.31937 -1.44364,-2.5035 -2.80146,-4.85363 l -2.46875,-4.27296 2.80146,-4.87702 2.80145,-4.87701 5.7143,-0.002 5.7143,-0.002 0.3327,0.58067 c 0.18298,0.31937 1.45069,2.51573 2.81713,4.88079 l 2.48442,4.30012 -2.80372,4.85334 -2.80371,4.85334 -5.72771,-0.001 -5.72771,-0.001 z M 57.851954,196.2387 c -1.513231,-2.64334 -2.751328,-4.90496 -2.751328,-5.02584 0,-0.12087 1.238097,-2.38285 2.751328,-5.02663 l 2.751328,-4.80686 5.656508,-0.008 c 5.642015,-0.008 5.657259,-0.007 5.949813,0.46823 0.250312,0.40639 5.161666,8.9283 5.345444,9.27512 0.03546,0.0669 -1.198441,2.30501 -2.741999,4.97355 l -2.806467,4.85189 -5.70165,0.0523 -5.701649,0.0523 z m 36.421545,4.33113 c -0.169324,-0.2619 -1.458998,-2.4689 -2.865944,-4.90443 l -2.558082,-4.42825 2.201097,-3.82574 c 1.210604,-2.10415 2.48094,-4.30193 2.822971,-4.88394 l 0.621873,-1.0582 h 5.684666 5.68466 l 0.62188,1.0582 c 0.34203,0.58201 1.61164,2.77853 2.82136,4.88115 l 2.19949,3.82295 -2.80655,4.8994 -2.80654,4.89939 -5.65651,0.008 c -5.637723,0.008 -5.657532,0.006 -5.964371,-0.46836 z m 33.874351,0 c -1.17633,-1.89238 -5.28673,-9.15987 -5.28581,-9.3457 6.3e-4,-0.12707 0.93887,-1.85009 2.08498,-3.82893 1.14611,-1.97884 2.37979,-4.1217 2.7415,-4.76191 l 0.65767,-1.16402 5.70534,-0.0488 5.70535,-0.0487 2.75132,4.81067 c 1.51323,2.64586 2.75133,4.91656 2.75133,5.046 0,0.12943 -1.2381,2.3892 -2.75133,5.02172 l -2.75132,4.78639 -5.65651,0.005 c -5.63961,0.005 -5.65739,0.003 -5.95252,-0.47145 z m -87.310104,-33.80959 -2.809412,-4.86773 2.809412,-4.86774 2.809411,-4.86773 5.726734,0.003 5.726735,0.003 0.557963,1.00224 c 0.306879,0.55124 1.564428,2.74224 2.794552,4.86891 l 2.23659,3.86666 -2.794553,4.85741 -2.794552,4.8574 -5.726735,0.006 -5.726734,0.006 z m 33.879033,-0.003 -2.806659,-4.87075 2.812206,-4.86384 2.812206,-4.86384 5.714297,4.5e-4 5.714297,4.5e-4 0.332818,0.58068 c 0.183051,0.31937 1.444397,2.51291 2.802992,4.87454 l 2.470172,4.29386 -2.802991,4.85771 -2.802991,4.8577 -5.719844,0.002 -5.719844,0.002 z m 35.742781,3.22793 c -0.51561,-0.90069 -1.77864,-3.08342 -2.80673,-4.8505 l -1.86925,-3.21287 2.47391,-4.30037 c 1.36065,-2.3652 2.62367,-4.56167 2.80672,-4.88104 l 0.33282,-0.58068 5.7143,-4.5e-4 5.7143,-4.5e-4 2.81415,4.8672 2.81414,4.8672 -1.619,2.80389 c -0.89046,1.54214 -2.15331,3.73246 -2.80635,4.86738 l -1.18733,2.0635 -5.7221,-0.003 -5.72211,-0.003 z m 32.00542,-3.22681 -2.79455,-4.85741 2.23659,-3.86666 c 1.23012,-2.12667 2.48767,-4.31768 2.79455,-4.86891 l 0.55796,-1.00224 5.7163,-0.003 c 5.21735,-0.003 5.73637,0.0293 5.94627,0.36732 0.12649,0.2037 1.39558,2.39392 2.82019,4.86714 l 2.59021,4.49678 -2.80975,4.86833 -2.80975,4.86832 -5.72673,-0.006 -5.72674,-0.006 z M 24.412735,138.36894 c -1.280426,-2.22982 -2.555367,-4.4473 -2.833203,-4.92775 l -0.505156,-0.87353 2.080783,-3.59158 c 1.144431,-1.97537 2.276515,-3.94905 2.515742,-4.38595 l 0.434959,-0.79436 6.310925,0.0536 6.310925,0.0536 2.330595,4.02117 c 1.281827,2.21165 2.410153,4.16671 2.507391,4.3446 0.125463,0.22951 -0.640165,1.73505 -2.636888,5.18519 l -2.813685,4.86178 -5.687171,0.0537 -5.68717,0.0537 z m 33.75668,-0.21749 c -1.338627,-2.34166 -2.608956,-4.55892 -2.822954,-4.92724 l -0.389087,-0.66967 2.257586,-3.87614 c 1.241672,-2.13188 2.361247,-4.10366 2.487944,-4.38173 l 0.230359,-0.50558 6.348732,0.056 6.348732,0.056 2.490337,4.32936 c 1.369686,2.38114 2.463152,4.38115 2.429926,4.44445 -0.16616,0.31657 -5.088498,8.85798 -5.341387,9.26856 -0.29251,0.4749 -0.308648,0.47617 -5.949813,0.46992 l -5.656508,-0.006 z m 36.113225,3.79737 c -0.359608,-0.56881 -4.829687,-8.31983 -5.176299,-8.97559 -0.209999,-0.39731 0.06952,-0.98845 2.251665,-4.76192 l 2.491429,-4.3083 h 6.330645 6.33064 l 2.49979,4.32276 2.49979,4.32276 -2.2009,3.82541 c -1.2105,2.10397 -2.4807,4.30159 -2.82267,4.88361 l -0.62175,1.0582 -5.63956,0.0563 -5.639548,0.0564 z m 33.86791,-0.003 c -0.25319,-0.41107 -5.17673,-8.95461 -5.34091,-9.26779 -0.033,-0.0629 1.0624,-2.06288 2.43414,-4.44445 l 2.49406,-4.33012 6.34453,-0.056 6.34452,-0.056 0.24584,0.53955 c 0.13521,0.29675 1.25582,2.26242 2.49026,4.36816 l 2.24442,3.82861 -0.49722,0.88402 c -0.27347,0.48621 -1.54484,2.70918 -2.82527,4.93993 l -2.32804,4.0559 -5.65651,0.007 c -5.64161,0.007 -5.65728,0.006 -5.94982,-0.46904 z m 33.76373,-0.21164 c -0.3026,-0.49931 -4.63038,-7.98305 -5.23498,-9.05249 -0.0344,-0.0609 1.06602,-2.06087 2.44541,-4.44445 l 2.50798,-4.33378 6.3108,-0.0536 6.31081,-0.0536 0.43496,0.79436 c 0.23922,0.4369 1.36689,2.40292 2.50591,4.36894 1.53054,2.64179 2.02454,3.66883 1.89309,3.9358 -0.0978,0.19867 -1.36835,2.42249 -2.82338,4.94182 l -2.6455,4.58059 -5.64413,0.002 -5.64413,0.002 z"
       id="path1" /></g></svg>
